<svg width="30" height="30" viewBox="0 0 30 30" fill="none" xmlns="http://www.w3.org/2000/svg">
<path d="M0.535702 16.0718H2.14281C2.43715 16.0718 2.67851 15.8304 2.67851 15.5361C2.67851 15.241 2.43715 14.9996 2.14281 14.9996H0.535702C0.24136 14.9996 0 15.241 0 15.5361C0 15.8304 0.24136 16.0718 0.535702 16.0718ZM3.02141 12.8841L1.88599 11.7479C1.67701 11.5396 1.67701 11.2019 1.88599 10.9929C2.09497 10.7839 2.432 10.7839 2.64098 10.9929L3.77713 12.1283C3.98538 12.3373 3.98538 12.6751 3.77713 12.8841C3.6697 12.9908 3.53577 13.0393 3.3967 13.0393C3.25689 13.0393 3.12296 12.9856 3.01626 12.8841H3.02141ZM1.88011 20.0836C1.67112 19.8747 1.67112 19.5376 1.88011 19.3287L3.01626 18.1925C3.22524 17.9843 3.56227 17.9843 3.77125 18.1925C3.98023 18.4015 3.98023 18.7392 3.77125 18.9482L2.63583 20.0836C2.52839 20.1911 2.39447 20.2396 2.25539 20.2396C2.11631 20.2396 1.98239 20.1859 1.87495 20.0836H1.88011ZM23.0359 14.9996H12.3211C12.0268 14.9996 11.7854 14.759 11.7854 14.4639V11.7854H23.5716V14.4639C23.5716 14.759 23.3302 14.9996 23.0359 14.9996ZM6.73894 13.0658C7.08774 12.2681 7.92293 11.7854 8.79639 11.7854H10.714V14.4639C10.714 15.3536 11.4322 16.0718 12.3211 16.0718H23.0359C23.9248 16.0718 24.643 15.3536 24.643 14.4639V11.7854H25.7144C26.3038 11.7854 26.7858 12.2681 26.7858 12.8568V18.2146C26.7858 18.8033 26.3038 19.286 25.7144 19.286H11.9142C11.3461 19.286 10.8001 19.0608 10.3983 18.659L7.18414 15.4448C6.54615 14.8068 6.3747 13.8914 6.73894 13.0658ZM10.1783 1.0714C10.1783 0.481984 10.661 0 11.2497 0H23.0359C23.6253 0 24.1073 0.481984 24.1073 1.0714C24.1073 1.66082 23.6253 2.1428 23.0359 2.1428H11.2497C10.661 2.1428 10.1783 1.66082 10.1783 1.0714ZM27.8572 13.3925H28.3929C29.2767 13.3925 30 14.1159 30 14.9996V16.0718C30 16.9555 29.2767 17.6789 28.3929 17.6789H27.8572V13.3925ZM5.35701 13.3925H5.5395C5.35701 14.4109 5.66754 15.4389 6.42841 16.1998L7.90748 17.6789H5.35701C4.47325 17.6789 3.74991 16.9555 3.74991 16.0718V14.9996C3.74991 14.1159 4.47325 13.3925 5.35701 13.3925ZM4.82131 21.9645H12.3211C13.2056 21.9645 13.9282 22.6878 13.9282 23.5716C13.9282 24.4553 13.2056 25.1787 12.3211 25.1787H9.10692C8.81258 25.1787 8.57122 25.4193 8.57122 25.7144C8.57122 26.0087 8.81258 26.2501 9.10692 26.2501H15.6325C15.8518 25.6283 16.4412 25.1787 17.1432 25.1787H17.6789V28.3929H17.1432C16.4463 28.3929 15.8569 27.9426 15.6325 27.3215H9.10692C8.22316 27.3215 7.49982 26.5982 7.49982 25.7144C7.49982 24.8306 8.22316 24.1073 9.10692 24.1073H12.3211C12.6162 24.1073 12.8568 23.8659 12.8568 23.5716C12.8568 23.2765 12.6162 23.0359 12.3211 23.0359H4.82131C4.52697 23.0359 4.28561 22.7945 4.28561 22.5002C4.28561 22.2051 4.52697 21.9645 4.82131 21.9645ZM25.1787 20.3574V28.3929C25.1787 29.2767 24.4553 30 23.5716 30H20.3574C19.4729 30 18.7503 29.2767 18.7503 28.3929V23.2927C18.7503 22.9071 18.6105 22.5377 18.364 22.2485L16.7465 20.3574H25.1838H25.1787ZM18.7503 10.4837V10.714H15.5361V10.4837C13.0658 9.78243 11.2497 7.51085 11.2497 4.82131V3.21421H23.0359V4.82131C23.0359 7.51085 21.2198 9.78243 18.7503 10.4837Z" fill="#070707"/>
</svg>
