<svg width="31" height="30" viewBox="0 0 31 30" fill="none" xmlns="http://www.w3.org/2000/svg">
<path fill-rule="evenodd" clip-rule="evenodd" d="M10.3735 19.4617H19.8284C20.2274 19.5216 20.3204 19.9475 20.1367 20.4188C19.7462 21.4098 18.7461 22.0799 17.7284 22.0799H12.4736C11.4558 22.0799 10.4558 21.4098 10.0683 20.4188C9.88156 19.9475 9.97303 19.4617 10.3735 19.4617ZM3.49526 18.4327C3.73048 18.4343 4.00951 18.4626 4.34543 18.5249C5.68603 18.7682 7.11503 19.119 7.74536 20.789C8.08512 21.6895 7.84068 22.2925 6.86597 22.1381C5.85284 21.9797 3.95186 21.7291 3.04634 21.384C1.9448 20.9604 2.17387 19.6743 2.37527 19.0269C2.4875 18.6599 2.78652 18.4255 3.49526 18.4327ZM15.1002 3C11.6549 3 9.53564 3.05416 7.95521 3.49955C6.60616 3.87704 5.92202 5.02084 5.60609 5.87848L3.11398 12.683H1.17611C0.39435 12.6814 9.99062e-06 13.071 9.99062e-06 13.7315C-0.00229608 14.6158 0.39435 15.437 1.46975 16.0198L1.18457 16.555C0.8056 17.3132 0.528871 18.1134 0.528871 18.8304V24.6997C0.528871 25.6811 1.17842 26.5112 1.93174 26.82V29.0324C1.93174 29.5716 2.34375 30 2.85417 30H5.47618C5.98736 30 6.40092 29.5716 6.40092 29.0324V26.955H21.3558L22 13.7161C19.9445 13.8673 17.4809 14.0176 15.101 14.0176C11.3121 14.0176 7.16115 13.6361 5.10874 13.4728L7.50322 6.58577C7.6339 6.20343 7.98365 5.67397 8.47792 5.53656C9.63019 5.2116 11.6841 5.11137 15.101 5.11137C16.2509 5.11137 17.1949 5.12754 18.052 5.15664C18.1089 4.4356 18.258 3.72508 18.4832 3.04284C17.517 3.00889 16.4039 3 15.1002 3Z" fill="#070707"/>
<path fill-rule="evenodd" clip-rule="evenodd" d="M25.5006 24.9257C26.085 24.9257 26.5577 25.5129 26.5577 26.2392C26.5577 26.9647 26.085 27.5534 25.5006 27.5534C24.9163 27.5534 24.4429 26.9647 24.4429 26.2392C24.4429 25.5129 24.9157 24.9257 25.5006 24.9257ZM23.487 0C21.3846 1.02796 20 3.54973 20 6.36023C20.0039 9.03809 21.2659 11.4669 23.2276 12.5741L22.6414 26.9202C22.5642 28.7771 24.2672 30 25.5006 30C26.7309 30 28.4358 28.7771 28.3586 26.9202L27.7704 12.5765C29.7341 11.4693 30.9968 9.0389 31 6.36023C30.9968 3.55296 29.6141 1.03281 27.513 0.00727916V5.60887L25.5006 7.01534L23.487 5.60887V0Z" fill="#070707"/>
</svg>
