<svg width="28" height="22" viewBox="0 0 28 22" fill="none" xmlns="http://www.w3.org/2000/svg">
<path fill-rule="evenodd" clip-rule="evenodd" d="M27.7187 9.9332L26.4372 7.69398L27.2376 7.24893C27.3843 7.16738 27.4774 7.01282 27.4827 6.84194L27.5024 6.25087C27.5114 5.98058 27.3019 5.75612 27.0386 5.75379L25.3182 5.73748L22.6265 1.03379C22.2603 0.39301 21.5908 0 20.8667 0H7.1325C6.40925 0 5.73971 0.39301 5.37354 1.03379L2.68177 5.73748L0.961398 5.75379C0.698121 5.75612 0.488559 5.98058 0.497638 6.25087L0.516552 6.84194C0.521847 7.01282 0.615658 7.16738 0.761671 7.24893L1.56209 7.69398L0.281267 9.9332C0.0785145 10.2874 -0.0183228 10.6944 0.00286039 11.1045L0.429549 19.4361C0.434845 19.5324 0.452245 19.6249 0.480238 19.7126V20.953C0.480238 21.5309 0.937188 22 1.50081 22H5.07168C5.63531 22 6.09226 21.5317 6.09226 20.953V20.4287H21.907V20.953C21.907 21.5309 22.3639 22 22.9276 22H26.4984C27.0621 22 27.519 21.5317 27.519 20.953V19.7126C27.5478 19.6249 27.5652 19.5324 27.5697 19.4361L27.9971 11.1045C28.0183 10.6944 27.9215 10.2874 27.7187 9.9332ZM4.95064 6.53515L6.81551 2.70524C6.99784 2.33165 7.37005 2.09553 7.77707 2.09553H20.2229C20.6299 2.09553 21.0022 2.33165 21.1837 2.70524L23.0494 6.53515C23.2279 6.90175 22.9677 7.33359 22.5682 7.33359H5.43104C5.03159 7.33359 4.77209 6.90175 4.95064 6.53515ZM7.17714 14.4885L2.96245 13.7017C2.70674 13.6536 2.52138 13.4252 2.52138 13.1588V12.1406C2.52138 11.8113 2.79979 11.5557 3.1183 11.5922L6.79281 12.0109C6.98951 12.0334 7.15898 12.1654 7.23236 12.355L7.77178 13.7406C7.92914 14.1429 7.59248 14.5662 7.17714 14.4885ZM25.4786 13.1588C25.4786 13.4252 25.2925 13.6536 25.0376 13.7017L20.8229 14.4885C20.4068 14.5662 20.0709 14.1437 20.2275 13.7406L20.7676 12.355C20.841 12.1654 21.0097 12.0334 21.2072 12.0109L24.8817 11.5922C25.2002 11.5557 25.4786 11.8113 25.4786 12.1406V13.1588Z" fill="#070707"/>
</svg>
