<svg width="29" height="28" viewBox="0 0 29 28" fill="none" xmlns="http://www.w3.org/2000/svg">
<g clip-path="url(#clip0_506_27947)">
<path d="M20.8771 23.6237C20.4872 23.6244 20.1015 23.5845 19.72 23.5047C19.3386 23.4249 18.9697 23.3073 18.6143 23.1505C18.2588 22.9936 17.9237 22.8024 17.609 22.5761C17.2949 22.3497 17.0083 22.0932 16.7498 21.807H13.4395C13.306 21.807 13.1746 21.7946 13.044 21.7692C12.9133 21.743 12.7869 21.7059 12.6632 21.6557C12.5403 21.6054 12.4237 21.5442 12.3134 21.472C12.2024 21.3991 12.0998 21.3165 12.0057 21.2244C11.9115 21.1322 11.8279 21.0317 11.7535 20.9231C11.6797 20.8144 11.6172 20.7002 11.5666 20.5791C11.5153 20.4587 11.4774 20.3342 11.4514 20.2063C11.4254 20.0783 11.412 19.949 11.412 19.8183V18.2334C11.412 18.1034 11.4254 17.9741 11.4514 17.8454C11.4767 17.7175 11.5153 17.5937 11.5666 17.4726C11.6172 17.3522 11.6797 17.2373 11.7535 17.1286C11.8279 17.02 11.9115 16.9195 12.0057 16.8273C12.0998 16.7352 12.2024 16.6526 12.3134 16.5804C12.4237 16.5075 12.5403 16.4462 12.6632 16.396C12.7869 16.3465 12.9133 16.3087 13.044 16.2832C13.1746 16.2578 13.306 16.2447 13.4395 16.2447H15.729C15.8295 15.9922 15.9482 15.7487 16.0859 15.5142C16.2236 15.2789 16.3788 15.0553 16.551 14.8435C16.7224 14.6316 16.9099 14.4328 17.1123 14.2484C17.3146 14.0641 17.5296 13.8949 17.7572 13.7421C17.9855 13.5894 18.2237 13.4539 18.473 13.3356C18.7217 13.218 18.9775 13.1189 19.2416 13.0391C19.5058 12.9586 19.7741 12.8981 20.0474 12.8575C20.3207 12.8169 20.5954 12.7963 20.8715 12.7963C21.0007 12.7963 21.13 12.8004 21.2578 12.8094V9.79638H6.75503C6.79296 9.74204 6.8302 9.6877 6.86743 9.63335C7.14563 9.22887 7.40275 8.82783 7.67462 8.45087C7.68587 8.43917 7.6957 8.4261 7.70273 8.41166C7.78633 8.29815 7.87063 8.18671 7.95774 8.07803C8.2542 7.74165 8.69328 7.31447 8.72208 7.28764C9.05437 7.01111 9.42249 6.79373 9.82714 6.63483C11.1142 6.12785 12.5185 6.00747 13.8996 5.92561C14.1687 5.9091 14.4378 5.89465 14.704 5.87883C15.8997 5.80867 17.0968 5.7839 18.296 5.80316C19.2831 5.8183 20.2708 5.85957 21.2585 5.86783V4.5794C20.1858 4.56977 19.1152 4.53813 18.0431 4.53538C17.139 4.53331 16.2355 4.5457 15.3321 4.57184C15.0279 4.58009 14.7237 4.59041 14.4195 4.60279C13.2273 4.65094 12.0345 4.73418 10.8535 4.89377C9.36418 5.09601 7.77157 5.26386 6.93698 6.64171C6.60328 7.19271 6.25975 7.74302 5.93448 8.30159L5.49752 9.08854C5.49611 9.08854 5.49541 9.08854 5.49471 9.08854C5.47995 9.11675 5.4652 9.14426 5.45115 9.17247L5.43921 9.1931C5.30573 9.44762 5.17928 9.70421 5.06195 9.96492C4.98889 10.1279 4.81748 10.2841 4.64747 10.2249C4.58073 10.2016 4.52945 10.1493 4.48308 10.0963C4.00747 9.55769 3.94003 9.19035 3.14267 9.09817C2.47949 9.02044 0.0621247 10.1211 1.16859 10.9417C1.60134 11.263 1.47419 11.3971 4.23087 11.3971C4.23087 11.3971 4.39948 11.3662 4.2941 11.501C3.41455 12.6216 1.91748 13.3466 1.27327 14.6674C1.20512 14.807 1.15735 15.1723 1.12363 15.6875C1.06602 16.5818 1.05197 17.9252 1.05689 19.3161C1.06181 20.985 1.09202 22.7219 1.10185 23.8315C1.10326 23.9023 1.10326 23.9711 1.10396 24.0365C1.10677 24.4134 1.10677 24.6989 1.10115 24.8599V24.8619C1.10115 24.864 1.10115 24.8654 1.10115 24.8667L1.1145 25.0071C1.09272 25.2251 1.09061 25.4439 1.10818 25.6626C1.14822 26.1958 1.29575 26.7591 1.67019 27.165C1.69197 27.1884 1.71445 27.2118 1.73763 27.2338C2.10646 27.5881 2.58698 27.6644 3.07945 27.694C3.67518 27.7304 4.27303 27.76 4.87017 27.7339C5.35631 27.7119 5.94221 27.5709 6.10801 27.0591C6.22603 26.6965 6.20566 25.7411 6.16913 25.0078H21.2578V23.6107C21.1314 23.6196 21.0042 23.6237 20.8771 23.6237ZM8.70101 20.015C7.31002 20.6727 5.03596 20.855 3.5979 20.2634C3.20379 20.1017 2.85253 19.8197 2.60595 19.4874C2.091 18.7975 2.02918 17.8929 2.9832 17.412C3.83887 16.9807 4.88 16.8893 5.87969 16.9849C6.38058 17.0344 6.87305 17.1266 7.35779 17.2614C7.97601 17.4334 9.47518 17.7264 9.83206 18.2891C9.86789 18.3441 9.89529 18.4026 9.91426 18.4652C10.1089 19.116 9.20401 19.7777 8.70101 20.015Z" fill="#070707"/>
<path d="M20.6087 2.07017C20.622 2.11557 20.6368 2.15959 20.6536 2.20224C20.6726 2.24971 20.693 2.2958 20.7161 2.34051C20.7611 2.42718 20.8138 2.50973 20.8742 2.58678C20.9346 2.66382 21.0021 2.73467 21.0765 2.79933C21.1503 2.864 21.2304 2.92109 21.3154 2.97131C21.4011 3.02084 21.4903 3.0628 21.5838 3.09582C21.6765 3.12952 21.772 3.1536 21.8704 3.16942C21.968 3.18455 22.0671 3.19143 22.1661 3.18868C22.2652 3.18593 22.3636 3.17424 22.4605 3.15291C22.5574 3.13227 22.6516 3.1027 22.7429 3.06417C22.8342 3.02565 22.9207 2.97956 23.0028 2.92522C23.085 2.87019 23.1616 2.80896 23.2319 2.74018C23.3028 2.67139 23.366 2.59709 23.4215 2.51661C23.4777 2.43681 23.5255 2.35152 23.5656 2.26278C23.6056 2.17335 23.6358 2.08117 23.6583 1.98624C23.6801 1.89132 23.6927 1.79501 23.6962 1.69802C23.6997 1.60034 23.6934 1.50334 23.6787 1.40773C23.6632 1.31142 23.6393 1.21718 23.6056 1.12569C23.5726 1.03351 23.5304 0.94615 23.4806 0.862227C23.43 0.778304 23.3724 0.699197 23.307 0.62628C23.241 0.552675 23.1693 0.486638 23.0914 0.426791C23.0127 0.366256 22.9298 0.314664 22.8413 0.269951C22.7527 0.225238 22.6614 0.189468 22.5659 0.161952C22.471 0.134436 22.3734 0.115863 22.275 0.106921C22.176 0.0972901 22.0769 0.0972901 21.9786 0.106233C21.8795 0.114487 21.7826 0.132373 21.687 0.159888C21.5774 0.190844 21.4721 0.232805 21.3716 0.285773C21.3259 0.309849 21.2824 0.335989 21.2402 0.364193C21.2191 0.377263 21.1988 0.391708 21.1791 0.406842C21.1229 0.447428 21.0695 0.492141 21.0196 0.540293C20.9269 0.629719 20.8468 0.728776 20.7787 0.837463C20.7112 0.94615 20.6578 1.06103 20.6192 1.18279C20.5799 1.30454 20.5567 1.42836 20.5496 1.55562C20.5419 1.68288 20.5503 1.80946 20.5749 1.93465C20.5841 1.97937 20.5953 2.02477 20.6087 2.07017ZM23.2572 1.42355L21.2248 0.929641C22.5722 0.157137 23.2572 1.42355 23.2572 1.42355Z" fill="#070707"/>
<path d="M20.478 6.9272C20.3585 6.90106 20.2391 6.90519 20.1211 6.93821C20.0705 6.95265 20.022 6.97191 19.9756 6.99668C19.9546 7.00768 19.9342 7.02007 19.9145 7.03314C19.9054 7.03933 19.8956 7.04621 19.8864 7.0524C19.8604 7.07166 19.8358 7.09229 19.8127 7.11431C19.7256 7.19823 19.6637 7.29729 19.6272 7.41148C19.5907 7.52567 19.5843 7.64123 19.6068 7.75886C19.611 7.7795 19.616 7.80082 19.6223 7.82146C19.6286 7.84279 19.6356 7.86273 19.6434 7.88268C19.6525 7.9047 19.6616 7.92602 19.6722 7.94666C19.7003 8.001 19.734 8.05053 19.7747 8.09524C19.8148 8.14064 19.8604 8.18054 19.9117 8.21425C19.9623 8.24864 20.0164 8.27616 20.074 8.29611C20.1323 8.31674 20.1913 8.32981 20.2531 8.33601C20.3143 8.34151 20.3747 8.33944 20.4358 8.3305C20.4962 8.32087 20.5552 8.30436 20.6114 8.28029C20.6676 8.25621 20.7203 8.22594 20.7688 8.1888C20.8173 8.15234 20.8608 8.10969 20.8981 8.06222C20.936 8.01407 20.9669 7.96317 20.9915 7.90745C21.0154 7.85242 21.0322 7.79463 21.0421 7.73547C21.0512 7.67563 21.0533 7.61578 21.0477 7.55593C21.0414 7.49609 21.028 7.43762 21.0069 7.38052C20.9859 7.32411 20.9585 7.27115 20.9233 7.22093C20.8889 7.1714 20.8482 7.12669 20.8025 7.08679C20.7561 7.04689 20.7056 7.01387 20.6508 6.98636C20.596 6.95953 20.5384 6.93958 20.478 6.92651V6.9272ZM19.9075 7.29522C20.5306 6.93752 20.8475 7.5236 20.8475 7.5236L19.9075 7.29522Z" fill="#070707"/>
<path d="M24.8645 2.33521C24.8708 2.35653 24.8785 2.37648 24.8855 2.39643C24.8933 2.41638 24.9038 2.43977 24.9143 2.4604C24.9361 2.50236 24.9621 2.54226 24.9916 2.57941C25.0211 2.61655 25.0542 2.65026 25.0914 2.68122C25.1279 2.71148 25.1666 2.73831 25.2087 2.7617C25.2509 2.7844 25.2944 2.80297 25.3401 2.81742C25.3864 2.83186 25.4328 2.84218 25.4806 2.84769C25.5284 2.85319 25.5761 2.85388 25.6239 2.84975C25.6724 2.84562 25.7194 2.83737 25.7651 2.8243C25.8115 2.81123 25.8564 2.79403 25.8986 2.77202C25.9414 2.75069 25.9815 2.72524 26.0194 2.69566C26.0566 2.66608 26.0911 2.63306 26.122 2.59729C26.1529 2.56083 26.1796 2.52231 26.2028 2.48104C26.226 2.43977 26.2449 2.39643 26.259 2.35103C26.2737 2.30631 26.2829 2.26023 26.2885 2.21345C26.2934 2.16667 26.2934 2.11989 26.2892 2.07243C26.285 2.02565 26.2758 1.97956 26.2618 1.93416C26.2484 1.88945 26.2302 1.84543 26.2077 1.80415C26.1852 1.76219 26.1585 1.72298 26.1283 1.68652C26.0981 1.65006 26.0644 1.61705 26.0271 1.58678C25.9899 1.5572 25.9506 1.53106 25.9077 1.50836C25.8656 1.48635 25.8213 1.46846 25.7749 1.4547C25.7293 1.44094 25.6822 1.432 25.6344 1.42719C25.5867 1.42237 25.5389 1.42306 25.4911 1.42719C25.4433 1.432 25.3963 1.44163 25.3499 1.45539C25.3042 1.46915 25.26 1.48772 25.2178 1.50973C25.1968 1.52074 25.1764 1.53312 25.1567 1.54619C25.1476 1.55238 25.1378 1.55926 25.1286 1.56545C25.1026 1.58471 25.078 1.60535 25.0549 1.62736C24.9677 1.71129 24.9059 1.81034 24.8694 1.92453C24.8329 2.03872 24.8265 2.15429 24.849 2.27192C24.8532 2.29324 24.8588 2.31457 24.8645 2.33521ZM26.0904 2.03597L25.1497 1.80759C25.7728 1.44989 26.0904 2.03597 26.0904 2.03597Z" fill="#070707"/>
<path d="M26.2634 8.59097C26.2676 8.6116 26.2725 8.63293 26.2788 8.65357C26.2852 8.67489 26.2922 8.69484 26.2999 8.71479C26.3083 8.7368 26.3182 8.75813 26.3287 8.77876C26.3582 8.83723 26.3962 8.8902 26.4411 8.93835C26.4994 9.00164 26.5676 9.05254 26.6449 9.09175C26.7221 9.13096 26.8036 9.15573 26.89 9.16605C26.9764 9.17636 27.0621 9.17224 27.1465 9.15229C27.2315 9.13303 27.3094 9.09932 27.3825 9.05186C27.4549 9.00508 27.5167 8.94661 27.568 8.87782C27.6192 8.80903 27.6565 8.73336 27.6804 8.6515C27.7035 8.56895 27.712 8.48572 27.7057 8.40042C27.6986 8.31581 27.6769 8.23464 27.6403 8.15691C27.6038 8.07917 27.5546 8.01039 27.4935 7.95054C27.4317 7.89 27.3614 7.84254 27.282 7.80677C27.2027 7.77169 27.1198 7.75036 27.0333 7.74417C26.9469 7.73798 26.8612 7.74623 26.7776 7.76962C26.727 7.78407 26.6786 7.80333 26.6315 7.82809C26.6111 7.8391 26.5908 7.85148 26.5711 7.86455C26.5613 7.87074 26.5521 7.87762 26.543 7.8845C26.517 7.90307 26.4924 7.92371 26.4692 7.94641C26.3821 8.02965 26.3203 8.1287 26.2838 8.24289C26.2472 8.35777 26.2402 8.47334 26.2634 8.59097ZM27.504 8.35433L26.5641 8.12595C27.1872 7.76893 27.504 8.35502 27.504 8.35502V8.35433Z" fill="#070707"/>
<path d="M24.0358 9.24733C23.7766 9.19162 23.5195 9.19987 23.2644 9.2721C23.1549 9.30305 23.0495 9.34502 22.949 9.39798C22.9041 9.42206 22.8605 9.4482 22.8176 9.4764C22.7973 9.48947 22.7769 9.50461 22.7565 9.51905C22.7003 9.56033 22.6476 9.60504 22.5978 9.65319C22.505 9.74193 22.4242 9.84099 22.3568 9.94967C22.2886 10.0584 22.2353 10.1732 22.1966 10.295C22.158 10.4168 22.1348 10.5413 22.1278 10.6685C22.12 10.7958 22.1285 10.9217 22.1531 11.0469C22.1622 11.0923 22.1727 11.1377 22.1861 11.1831C22.1994 11.2278 22.2142 11.2718 22.2317 11.3151C22.2507 11.3626 22.2711 11.4087 22.2943 11.4534C22.3589 11.5793 22.4397 11.6942 22.5366 11.798C22.5781 11.8428 22.6223 11.8847 22.6687 11.9246C22.7158 11.9638 22.7643 12.001 22.8155 12.0347C22.8668 12.0691 22.9195 12.1 22.9743 12.1275C23.0291 12.1557 23.0853 12.1798 23.1429 12.2011C23.2005 12.2225 23.2595 12.241 23.3192 12.2555C23.379 12.2699 23.4401 12.2809 23.5012 12.2885C23.5623 12.2961 23.6234 12.3002 23.6853 12.3009C23.7471 12.3016 23.8082 12.2981 23.87 12.2919C23.9311 12.2851 23.9916 12.2754 24.052 12.2617C24.1124 12.2479 24.1714 12.2314 24.229 12.2108C24.2873 12.1901 24.3442 12.1668 24.399 12.1399C24.4545 12.1131 24.5079 12.0828 24.5599 12.0498C24.6112 12.0168 24.6611 11.981 24.7081 11.9418C24.7559 11.9033 24.8002 11.862 24.843 11.818C24.8852 11.774 24.9252 11.7279 24.9617 11.679C24.9983 11.6309 25.0327 11.5807 25.0629 11.5277C25.0938 11.4754 25.1219 11.4218 25.1458 11.366C25.1704 11.3103 25.1915 11.2532 25.209 11.1954C25.2266 11.1377 25.2406 11.0785 25.2505 11.0193C25.261 10.9595 25.268 10.8997 25.2715 10.8391C25.2751 10.7786 25.2744 10.7181 25.2701 10.6575C25.2666 10.5977 25.2589 10.5371 25.2477 10.478C25.2364 10.4181 25.2224 10.3597 25.2041 10.3019C25.1858 10.2441 25.1641 10.1877 25.1395 10.132C25.1142 10.0769 25.0861 10.0233 25.0545 9.971C25.0236 9.91872 24.9891 9.8685 24.9519 9.82035C24.914 9.7722 24.8739 9.7268 24.8311 9.68346C24.7882 9.63943 24.7433 9.59885 24.6955 9.56033C24.6477 9.52249 24.5978 9.48672 24.5458 9.45439C24.4939 9.42206 24.4398 9.39248 24.3843 9.36565C24.3288 9.33951 24.2719 9.31681 24.2136 9.29686C24.1552 9.27691 24.0962 9.2604 24.0358 9.24802V9.24733ZM22.8022 10.0419C24.1496 9.27004 24.8353 10.5358 24.8353 10.5358L22.8022 10.0419Z" fill="#070707"/>
<path d="M22.9943 4.21204C22.9283 4.24712 22.8644 4.28564 22.8026 4.32623C22.7724 4.34618 22.7421 4.36681 22.7126 4.38883C22.6304 4.44867 22.5532 4.51471 22.4801 4.58488C22.3445 4.71558 22.2272 4.86003 22.1281 5.01894C22.0284 5.17784 21.9511 5.34637 21.8942 5.52385C21.8373 5.70201 21.8036 5.88362 21.793 6.07004C21.7818 6.25577 21.7944 6.44012 21.8303 6.6231C21.8429 6.68983 21.8591 6.75587 21.8787 6.8219C21.8977 6.88863 21.9202 6.95329 21.9448 7.01589C21.9722 7.08537 22.0024 7.15209 22.0361 7.21744C22.1021 7.3447 22.1787 7.46508 22.2672 7.5779C22.3558 7.69071 22.4548 7.7939 22.563 7.88883C22.6719 7.98307 22.7885 8.06699 22.9129 8.13991C23.0379 8.21282 23.1686 8.27336 23.3049 8.3222C23.4411 8.37104 23.581 8.40681 23.7243 8.42951C23.8676 8.45221 24.0116 8.46115 24.157 8.45703C24.3024 8.45359 24.4458 8.43639 24.5877 8.40543C24.7289 8.37517 24.8666 8.33114 25 8.27542C25.1335 8.21902 25.2607 8.1516 25.3808 8.07181C25.5009 7.99201 25.6126 7.9019 25.7159 7.80146C25.8185 7.70103 25.9112 7.59234 25.9934 7.47471C26.0749 7.35709 26.1451 7.23326 26.2035 7.10256C26.2611 6.97255 26.3067 6.83773 26.3383 6.69877C26.3707 6.55982 26.3889 6.41949 26.3945 6.27709C26.3995 6.1347 26.3903 5.99299 26.3685 5.85266C26.3461 5.71164 26.3109 5.57407 26.2618 5.43993C26.2133 5.30579 26.1522 5.17784 26.0784 5.05471C26.0046 4.93226 25.9203 4.8167 25.8248 4.71007C25.7293 4.60276 25.6239 4.50577 25.5094 4.41772C25.3949 4.33036 25.2733 4.254 25.1441 4.18865C25.0148 4.12399 24.8806 4.07102 24.7415 4.03112C24.6024 3.99122 24.4605 3.96371 24.3158 3.94995C24.1711 3.93619 24.0271 3.93619 23.8823 3.94857C23.7376 3.96164 23.5957 3.98778 23.4559 4.02699C23.2957 4.0724 23.1419 4.13431 22.9943 4.21204ZM25.7531 5.87605L22.7801 5.15376C24.7506 4.02355 25.7531 5.87605 25.7531 5.87605Z" fill="#070707"/>
<path d="M21.2553 21.8058H21.1386L20.3855 20.9163L20.3841 20.9142C20.0842 20.8627 19.7996 20.7657 19.532 20.6233C19.5137 20.6136 19.4961 20.604 19.4779 20.5937C19.4561 20.5813 19.4336 20.5682 19.4111 20.5552C19.3788 20.5359 19.3465 20.516 19.3149 20.4946C19.3142 20.4946 19.3135 20.4946 19.3135 20.4939C19.2945 20.4816 19.2763 20.4692 19.258 20.4568C19.251 20.452 19.2446 20.4472 19.2369 20.4423L19.2172 20.4279L19.1884 20.4066C19.2116 20.4238 19.2341 20.4403 19.258 20.4568C19.232 20.4389 19.2067 20.4203 19.1814 20.4018L19.1765 20.3983C19.1498 20.3777 19.1231 20.3577 19.0971 20.3364C19.121 20.3557 19.1456 20.3742 19.1695 20.3928L19.1365 20.3681C19.1301 20.3626 19.1231 20.357 19.1168 20.3522L19.0971 20.3364C19.0795 20.322 19.062 20.3082 19.0444 20.2931C19.0226 20.2745 19.0009 20.2552 18.9791 20.236C18.9636 20.2222 18.9482 20.2078 18.9327 20.1933C18.918 20.1796 18.9032 20.1658 18.8892 20.1514C18.8871 20.15 18.885 20.1479 18.8835 20.1459C18.8702 20.1328 18.8569 20.1197 18.8442 20.1067C18.8428 20.1053 18.8421 20.1039 18.8407 20.1025C18.8273 20.0888 18.814 20.075 18.8006 20.0606C18.7711 20.0296 18.743 19.9973 18.7149 19.9649C18.0398 19.1663 17.9035 18.1008 18.266 17.1969C18.2759 17.1742 18.285 17.1508 18.2948 17.1281C18.3054 17.1054 18.3152 17.0827 18.3257 17.06C18.3314 17.0483 18.337 17.0373 18.3419 17.0256C18.3637 16.9809 18.3869 16.9362 18.4115 16.8921C18.4178 16.8811 18.4241 16.8701 18.4297 16.8591C18.4431 16.8371 18.4557 16.8158 18.4684 16.7938C18.4754 16.7828 18.4817 16.7717 18.4887 16.7614C18.5154 16.7188 18.5442 16.6761 18.5737 16.6349C18.6735 16.4938 18.7866 16.3631 18.9116 16.2434C18.965 16.1919 19.0219 16.1416 19.0817 16.0935C19.1126 16.0673 19.1449 16.0426 19.1772 16.0185C19.1934 16.0068 19.2095 15.9951 19.2264 15.9834C19.251 15.9655 19.2756 15.9483 19.3008 15.9318C19.3261 15.9153 19.3514 15.8988 19.3774 15.883C19.5657 15.7667 19.7652 15.6732 19.9767 15.6037C20.0301 15.5858 20.0842 15.57 20.1375 15.5556L20.1614 15.5494C20.1656 15.5487 20.1699 15.5473 20.1748 15.5466C20.1895 15.5425 20.2036 15.539 20.2183 15.5356L20.2317 15.5329C20.2528 15.528 20.2745 15.5232 20.2956 15.5191C20.3314 15.5115 20.3673 15.5047 20.4031 15.4991C20.6869 15.4524 20.9714 15.4482 21.2567 15.4868C21.2798 15.4902 21.303 15.4936 21.3255 15.4971C21.336 15.4985 21.3459 15.5005 21.3557 15.5019C21.374 15.5053 21.3929 15.5088 21.4112 15.5122L21.4351 15.517C21.4562 15.5212 21.4765 15.5253 21.4976 15.5301L21.5138 15.5335C21.537 15.539 21.5601 15.5445 21.5826 15.5501L21.6016 15.5556C21.6234 15.5611 21.6444 15.5666 21.6662 15.5728L21.6838 15.5783C21.7021 15.5838 21.721 15.5893 21.7393 15.5955L21.7744 15.6065C21.7885 15.6113 21.8025 15.6161 21.8173 15.6209L21.8426 15.6298C21.8643 15.6381 21.8854 15.6457 21.9065 15.6539C21.9177 15.6581 21.9297 15.6629 21.9409 15.6677C21.9543 15.6732 21.9683 15.6787 21.9824 15.6849L21.9866 15.6863L22.0041 15.6938C22.0231 15.7021 22.0421 15.7103 22.0603 15.7186L22.0786 15.7275C22.1482 15.7599 22.217 15.7956 22.2844 15.8335L22.3118 15.8493C22.3322 15.8617 22.3526 15.8734 22.3723 15.8857L22.3737 15.8864H22.3744C22.3961 15.8995 22.4172 15.9139 22.439 15.9277L22.4523 15.9366C22.4741 15.9518 22.4959 15.9662 22.5177 15.982C22.498 15.9676 22.4776 15.9538 22.458 15.9408L22.4664 15.9463C22.4671 15.9463 22.4678 15.947 22.4685 15.9477C22.4847 15.9587 22.5015 15.9704 22.5177 15.982C22.557 16.0096 22.595 16.0385 22.6329 16.0687C22.6434 16.0763 22.6533 16.0845 22.6631 16.0928C22.6729 16.1011 22.6835 16.1093 22.6933 16.1176C22.7031 16.1258 22.7102 16.132 22.7186 16.1389C22.7298 16.1485 22.7411 16.1588 22.7523 16.1685L22.7818 16.1953C22.8008 16.2125 22.8198 16.2304 22.8387 16.249C22.8486 16.2579 22.8577 16.2675 22.8668 16.2765C22.923 16.3322 22.9771 16.3913 23.0291 16.4519C23.0474 16.4739 23.0656 16.4959 23.0825 16.5179C23.093 16.531 23.1029 16.5434 23.112 16.5558C23.1162 16.5606 23.119 16.5647 23.1225 16.5688C23.1324 16.5819 23.1415 16.5943 23.1514 16.6067C23.1626 16.6225 23.1745 16.639 23.1851 16.6548C23.1928 16.6658 23.2005 16.6768 23.2083 16.6885C23.2125 16.694 23.2167 16.7002 23.2202 16.7057C23.2293 16.7188 23.2385 16.7332 23.2469 16.7463C23.249 16.7497 23.2511 16.7525 23.2532 16.7559C23.2624 16.7704 23.2708 16.7848 23.2799 16.7993C23.2813 16.8013 23.2827 16.8034 23.2834 16.8055C23.3038 16.8392 23.3235 16.8729 23.3417 16.9073C23.3488 16.9203 23.3551 16.932 23.3621 16.9451C23.3698 16.9582 23.3762 16.9699 23.3818 16.9822C23.3825 16.9836 23.3839 16.9857 23.3846 16.9877C23.3965 17.0118 23.4085 17.0366 23.4204 17.062C23.4204 17.0634 23.4218 17.0648 23.4225 17.0662C23.4317 17.0875 23.4415 17.1081 23.4506 17.1288C23.452 17.1336 23.4541 17.1384 23.4562 17.1425C23.4612 17.1528 23.4654 17.1638 23.4696 17.1742C23.4717 17.1797 23.4738 17.1845 23.4759 17.19C23.4696 17.1742 23.4626 17.1583 23.4562 17.1425C23.4647 17.1625 23.4731 17.1824 23.4808 17.2024L23.4858 17.2141C23.4935 17.2333 23.5005 17.2526 23.5075 17.2718L23.5089 17.276C23.5167 17.2966 23.5237 17.3172 23.5307 17.3379C23.5321 17.3427 23.5342 17.3475 23.5356 17.3516C23.5413 17.3695 23.5469 17.386 23.5518 17.4039C23.5532 17.4067 23.5539 17.4101 23.5553 17.4136C23.5609 17.4321 23.5665 17.4507 23.5715 17.4693C23.5722 17.4727 23.5736 17.4762 23.5743 17.4796C23.5806 17.5009 23.5862 17.5216 23.5911 17.5429C23.5967 17.5649 23.6024 17.5869 23.6073 17.6089C23.6087 17.6151 23.6094 17.6213 23.6108 17.6275C23.6199 17.6667 23.6277 17.7073 23.6347 17.7472L23.6361 17.7596C23.6396 17.7781 23.6424 17.7974 23.6452 17.816C23.6452 17.8187 23.6452 17.8215 23.6466 17.8235C23.6487 17.8387 23.6501 17.8538 23.6522 17.8683C23.6537 17.8765 23.6544 17.8848 23.6551 17.893C23.6579 17.9123 23.66 17.9315 23.6614 17.9508C23.6621 17.9584 23.6628 17.9666 23.6635 17.9742C23.6649 17.9886 23.6656 18.0038 23.667 18.0182C23.667 18.0285 23.6684 18.0382 23.6684 18.0478C23.6684 18.0615 23.6698 18.0732 23.6705 18.0856L23.6712 18.1021C23.6712 18.12 23.6726 18.1379 23.6726 18.1558C23.6726 18.164 23.6726 18.1716 23.6726 18.1799C23.6726 18.1984 23.6726 18.2163 23.6726 18.2349L23.674 18.2363L25.3383 20.2023C26.0921 18.5761 25.8891 16.5991 24.647 15.1325C24.581 15.0541 24.5121 14.9784 24.4412 14.9041C24.3695 14.8298 24.2965 14.7583 24.2206 14.6888C24.1447 14.6193 24.0667 14.5526 23.9866 14.4879C23.9066 14.4233 23.8244 14.3614 23.7401 14.3022C23.6558 14.2431 23.5701 14.186 23.4822 14.1316C23.3944 14.078 23.3045 14.0264 23.2139 13.9782C23.1225 13.9294 23.0298 13.884 22.9357 13.8406C22.8415 13.798 22.7467 13.7581 22.6498 13.7216C22.5528 13.6845 22.4552 13.6508 22.3568 13.6198C22.2577 13.5896 22.158 13.5614 22.0575 13.5373C21.9564 13.5125 21.8552 13.4912 21.7533 13.4726C21.6515 13.4547 21.5489 13.4396 21.4456 13.4272C21.3431 13.4155 21.2398 13.4073 21.1358 13.4018C21.0326 13.3963 20.9286 13.3935 20.8253 13.3949C20.7213 13.3956 20.6181 13.3997 20.5141 13.4073C20.4108 13.4148 20.3076 13.4251 20.205 13.4389C20.1024 13.4527 19.9999 13.4699 19.8987 13.4898C19.7968 13.5104 19.6957 13.5331 19.5959 13.56C19.4954 13.5861 19.3964 13.6157 19.298 13.6487C19.2004 13.681 19.1027 13.7168 19.0072 13.7553C18.9109 13.7939 18.8168 13.8358 18.7234 13.8798C18.6299 13.9246 18.5386 13.972 18.448 14.0222C18.3581 14.0725 18.2695 14.1254 18.1824 14.1811C18.096 14.2369 18.011 14.2953 17.9281 14.3559C17.8452 14.4171 17.7644 14.4804 17.685 14.5464C17.6064 14.6125 17.5298 14.6812 17.4553 14.7521C17.3809 14.8223 17.3085 14.8959 17.2389 14.9708C17.1694 15.0465 17.102 15.1236 17.0373 15.2027C16.9727 15.2825 16.9102 15.3636 16.8505 15.4469C16.7914 15.5308 16.7345 15.6154 16.6804 15.7021C16.6264 15.7894 16.5751 15.8775 16.5273 15.9676C16.4788 16.0577 16.4332 16.1492 16.391 16.2421C15.6541 17.8627 15.8627 19.8232 17.0963 21.2816C17.2432 21.4542 17.4012 21.6166 17.5712 21.7679C17.7413 21.9193 17.9211 22.0582 18.1108 22.1848C18.3005 22.3114 18.4979 22.4242 18.7037 22.5239C18.9095 22.623 19.121 22.7083 19.3395 22.7784C19.5573 22.8486 19.7793 22.9036 20.0048 22.9435C20.2303 22.9834 20.4579 23.0082 20.6869 23.0164C20.9166 23.0254 21.145 23.0178 21.3733 22.9951C21.6016 22.9724 21.8271 22.9339 22.0498 22.8802L21.2553 21.942V21.8058ZM23.4956 17.243L23.4928 17.2368L23.4949 17.2409L23.4956 17.243ZM22.3912 15.8988C22.3919 15.8988 22.3919 15.8995 22.3926 15.9002L22.4025 15.9064L22.4235 15.9194C22.4242 15.9194 22.4249 15.9201 22.4256 15.9208C22.4264 15.9215 22.4278 15.9222 22.4292 15.9229C22.4144 15.9133 22.399 15.9036 22.3842 15.894L22.3877 15.8961C22.3891 15.8967 22.3898 15.8974 22.3912 15.8988ZM22.3385 15.8658L22.3568 15.8775L22.328 15.8603L22.335 15.8644C22.3364 15.8651 22.3371 15.8658 22.3385 15.8665V15.8658Z" fill="#070707"/>
<mask id="mask0_506_27947" style="mask-type:luminance" maskUnits="userSpaceOnUse" x="18" y="15" width="21" height="13">
<path d="M18.5234 15.959H38.3893V27.0533H18.5234V15.959Z" fill="white"/>
</mask>
<g mask="url(#mask0_506_27947)">
<path d="M38.1367 16.228C37.6879 16.2314 37.2468 16.2899 36.8127 16.4026C35.946 16.6302 35.1319 17.1203 34.5209 17.7837C33.8733 18.4877 33.5031 19.3168 33.4504 20.1809C33.4224 20.6415 33.4821 21.0939 33.5404 21.5304C33.5881 21.892 33.6338 22.233 33.6324 22.576C33.6267 24.3119 32.2044 25.9783 30.4625 26.2904C28.7389 26.599 26.8305 25.5582 26.1794 23.9647L26.6535 23.579L26.3487 23.2181L26.8017 22.8489L25.555 21.3771L25.0893 20.8264L24.54 20.1788L23.1226 18.5042L23.124 18.3536C23.124 18.3529 23.124 18.3523 23.124 18.3516C23.1346 18.1048 23.103 17.8635 23.0285 17.6277C23.0215 17.6036 23.013 17.5796 23.0046 17.5562C23.0018 17.5479 22.999 17.5397 22.9955 17.5314C22.9892 17.5149 22.9835 17.4984 22.9765 17.4819L22.973 17.4723L22.9583 17.4372L22.9569 17.4338L22.947 17.4104C22.9442 17.4049 22.9421 17.3994 22.9393 17.3939C22.9358 17.3857 22.9323 17.3781 22.9288 17.3706C22.9253 17.3623 22.9224 17.3575 22.9189 17.3506C22.9161 17.3438 22.9112 17.3341 22.907 17.3259L22.8965 17.3053L22.8901 17.2915L22.8873 17.2867C22.8824 17.2757 22.8768 17.2654 22.8712 17.2551C22.8662 17.2468 22.862 17.2386 22.8578 17.2303C22.8536 17.2221 22.8473 17.2118 22.8417 17.2021C22.8389 17.1987 22.8367 17.1946 22.8346 17.1905C22.8325 17.187 22.8283 17.1801 22.8255 17.1753L22.8171 17.1623C22.808 17.1471 22.7988 17.132 22.789 17.1169C22.7721 17.0908 22.7546 17.0646 22.7363 17.0392C22.7279 17.0261 22.7187 17.0138 22.7096 17.0014C22.7012 16.9883 22.6914 16.976 22.6815 16.9643C22.6724 16.9519 22.6626 16.9395 22.652 16.9272C22.6422 16.9148 22.6324 16.9024 22.6225 16.8907C22.6085 16.8742 22.5951 16.8584 22.5811 16.8433C22.5277 16.7828 22.4701 16.7257 22.4104 16.6721C22.4048 16.6673 22.3999 16.6625 22.3942 16.6584C22.3858 16.6501 22.3767 16.6425 22.3683 16.6357C22.3591 16.6281 22.3528 16.6226 22.3451 16.6164C22.3374 16.6102 22.3296 16.6034 22.3219 16.5979C22.3065 16.5855 22.291 16.5731 22.2748 16.5614L22.2482 16.5408C22.2215 16.5216 22.1948 16.503 22.1674 16.4851C22.1674 16.4844 22.1667 16.4844 22.166 16.4837C22.1063 16.4439 22.0445 16.4074 21.9812 16.3737H21.9805C21.9525 16.3586 21.9237 16.3442 21.8949 16.3304L21.8864 16.327C21.8583 16.3133 21.8302 16.3002 21.8021 16.2892L21.793 16.2851C21.7642 16.2734 21.7354 16.2617 21.7066 16.2514C21.6778 16.2411 21.6497 16.2314 21.6209 16.2218L21.6076 16.2177C21.5802 16.2088 21.5528 16.2012 21.5247 16.1936L21.5078 16.1888C21.4804 16.1813 21.4524 16.1751 21.4243 16.1689L21.4109 16.1654C21.3814 16.1593 21.3519 16.1531 21.3224 16.1483C20.8834 16.0713 20.4599 16.1214 20.0525 16.2981C19.9254 16.3531 19.8053 16.4191 19.6915 16.4975C19.6781 16.5057 19.6655 16.5154 19.6529 16.5236C19.6318 16.5381 19.6114 16.5539 19.5903 16.5697C19.5833 16.5745 19.5763 16.5807 19.5693 16.5862L19.5398 16.6095C19.5236 16.6226 19.5075 16.6364 19.492 16.6494C19.4766 16.6632 19.4611 16.6769 19.4456 16.6914C19.4161 16.7175 19.3881 16.7443 19.3607 16.7732C19.3473 16.7862 19.3347 16.7993 19.322 16.813C19.3101 16.8268 19.2996 16.8378 19.289 16.8495C19.2869 16.8515 19.2848 16.8536 19.2827 16.8557C19.2722 16.868 19.2623 16.8804 19.2511 16.8921C19.2504 16.8942 19.249 16.8955 19.2476 16.8969C19.2363 16.91 19.2251 16.9244 19.2146 16.9382C19.2033 16.9519 19.1956 16.9622 19.1858 16.9739C19.1675 16.9986 19.1492 17.0234 19.1324 17.0481C19.1197 17.066 19.1078 17.0839 19.0966 17.1018C19.0909 17.1093 19.086 17.1176 19.0811 17.1251C19.0748 17.1355 19.0678 17.1458 19.0621 17.1561C19.0558 17.1657 19.0509 17.1746 19.0453 17.1836C19.0397 17.1932 19.0348 17.2015 19.0291 17.2104C19.0242 17.2186 19.0186 17.2303 19.013 17.2399L18.9982 17.2661C18.9933 17.2764 18.9877 17.2867 18.9828 17.297C18.9772 17.308 18.9736 17.3142 18.9694 17.3231C18.9638 17.3334 18.9589 17.3438 18.954 17.3548C18.9498 17.363 18.9456 17.3713 18.942 17.3802C18.9371 17.3912 18.9322 17.4015 18.9273 17.4125C18.9238 17.4214 18.9203 17.4297 18.9161 17.4379C18.9118 17.4489 18.9069 17.4599 18.9027 17.4709L18.8929 17.4964C18.8887 17.5074 18.8844 17.5191 18.8802 17.5301L18.8711 17.5555C18.8669 17.5672 18.8634 17.5782 18.8592 17.5899C18.8563 17.5981 18.8535 17.6064 18.8507 17.6153C18.8472 17.6263 18.8437 17.638 18.8402 17.6497C18.8374 17.6579 18.8353 17.6669 18.8325 17.6751C18.8297 17.6868 18.8261 17.6985 18.8226 17.7102C18.8205 17.7184 18.8184 17.7274 18.8163 17.7356C18.8135 17.7473 18.81 17.7597 18.8072 17.7714L18.8016 17.7961C18.7988 17.8078 18.7959 17.8202 18.7938 17.8325C18.7917 17.8408 18.7903 17.849 18.7889 17.8566C18.7868 17.8697 18.784 17.882 18.7819 17.8944C18.7805 17.902 18.7791 17.9095 18.7777 17.9178C18.7763 17.9308 18.7742 17.9439 18.7721 17.957C18.7707 17.9638 18.77 17.9714 18.7693 17.979C18.7671 17.992 18.7657 18.0058 18.7636 18.0188C18.7629 18.0257 18.7622 18.0326 18.7615 18.0388C18.7601 18.0532 18.7587 18.067 18.7573 18.0814L18.7566 18.0965C18.7552 18.1123 18.7538 18.1281 18.7531 18.144C18.7531 18.146 18.7531 18.1481 18.7531 18.1501C18.7475 18.2505 18.7496 18.3502 18.7587 18.4499C18.7601 18.4684 18.7622 18.487 18.7643 18.5056L18.765 18.5124C18.7671 18.5296 18.7693 18.5475 18.7721 18.5647C18.7721 18.5681 18.7728 18.5709 18.7735 18.5743C18.7756 18.5915 18.7784 18.608 18.7819 18.6252C18.7819 18.6286 18.7826 18.6321 18.7833 18.6362C18.7861 18.6527 18.7896 18.6692 18.7931 18.6857C18.7938 18.6898 18.7945 18.6932 18.7952 18.6974C18.7988 18.7139 18.803 18.7304 18.8065 18.7469C18.8072 18.7503 18.8086 18.7544 18.8093 18.7579C18.8135 18.7744 18.8177 18.7909 18.8226 18.8074C18.8233 18.8108 18.8247 18.8149 18.8254 18.8184C18.8304 18.8349 18.8346 18.8514 18.8395 18.8679C18.8409 18.8713 18.8416 18.8747 18.843 18.8782C18.8479 18.8954 18.8535 18.9119 18.8592 18.9284C18.8592 18.9297 18.8599 18.9318 18.8606 18.9332L18.8634 18.9421C18.8669 18.9517 18.8704 18.9613 18.8739 18.971C18.8802 18.9895 18.8873 19.0074 18.8943 19.026C18.9076 19.061 18.9224 19.0961 18.9378 19.1312L18.9533 19.1641C18.9582 19.1751 18.9638 19.1861 18.9694 19.1971C18.9905 19.2411 19.0137 19.2838 19.039 19.3264C19.0453 19.3374 19.0516 19.3477 19.0579 19.3587C19.0713 19.3807 19.0846 19.4027 19.0987 19.424C19.1057 19.4343 19.1127 19.4439 19.119 19.4543C19.1204 19.4563 19.1219 19.4584 19.1233 19.4604C19.1296 19.4694 19.1366 19.479 19.1429 19.4879C19.1514 19.4996 19.1598 19.5113 19.1682 19.523C19.1766 19.534 19.1851 19.5457 19.1942 19.5567C19.2139 19.5828 19.2342 19.6082 19.2553 19.633C19.2658 19.6454 19.2764 19.6571 19.2869 19.6694C19.2974 19.6811 19.308 19.6928 19.3185 19.7045C19.3298 19.7162 19.3375 19.7251 19.3473 19.7347C19.3487 19.7368 19.3501 19.7382 19.3522 19.7402C19.3621 19.7499 19.3719 19.7602 19.3817 19.7698C19.3824 19.7705 19.3831 19.7712 19.3838 19.7719C19.551 19.9382 19.7414 20.0743 19.9549 20.1795C20.1684 20.2847 20.3932 20.3541 20.6292 20.3865C20.6299 20.3865 20.6313 20.3865 20.632 20.3865H20.6341L20.7802 20.4119L21.7916 21.6067L23.2125 23.2848L24.4585 24.7566L24.9116 24.3882L25.2171 24.7484L25.6912 24.3627C26.0733 25.1808 26.7413 25.8806 27.5947 26.3522C28.2999 26.7413 29.0753 26.9435 29.8374 26.9435C30.0853 26.9441 30.3319 26.9221 30.5756 26.8788C31.5631 26.7022 32.4861 26.1604 33.1744 25.3534C33.8634 24.5463 34.2441 23.5605 34.2477 22.576C34.2491 22.1931 34.1985 21.8157 34.1507 21.4513C34.0938 21.023 34.0397 20.6188 34.0643 20.216C34.1535 18.7599 35.3771 17.3994 36.9743 16.9808C37.3585 16.8811 37.7483 16.8302 38.1459 16.8268C38.1859 16.8261 38.2238 16.8172 38.2611 16.8013C38.2976 16.7855 38.3299 16.7635 38.3573 16.7354C38.3854 16.7065 38.4065 16.6742 38.4212 16.6377C38.436 16.6013 38.4437 16.5635 38.443 16.5236C38.443 16.4844 38.4345 16.4466 38.4191 16.4109C38.4036 16.3744 38.3819 16.3421 38.3531 16.3146C38.325 16.2864 38.292 16.2651 38.2554 16.25C38.2182 16.2349 38.1796 16.2273 38.1395 16.2266L38.1367 16.228Z" fill="#070707"/>
</g>
</g>
<defs>
<clipPath id="clip0_506_27947">
<rect width="29" height="28" fill="white"/>
</clipPath>
</defs>
</svg>
