<svg width="30" height="30" viewBox="0 0 30 30" fill="none" xmlns="http://www.w3.org/2000/svg">
<path d="M12.0232 0.218451C9.92968 -0.459251 7.6539 0.48341 6.65278 2.44294L5.44923 4.79869C5.30622 5.0786 5.07858 5.30625 4.79868 5.44925L2.44292 6.65281C0.483403 7.65393 -0.45924 9.92971 0.218444 12.0232L1.03317 14.54C1.12998 14.839 1.12998 15.1611 1.03317 15.4601L0.218444 17.9769C-0.45924 20.0704 0.483418 22.3461 2.44292 23.3472L4.79868 24.5508C5.07858 24.6939 5.30622 24.9215 5.44923 25.2014L6.6528 27.5571C7.65392 29.5166 9.92968 30.4592 12.0232 29.7816L14.54 28.9669C14.8391 28.8701 15.161 28.8701 15.46 28.9669L17.9768 29.7816C20.0703 30.4592 22.346 29.5166 23.3472 27.5571L24.5508 25.2014C24.6937 24.9215 24.9214 24.6939 25.2013 24.5508L27.5571 23.3472C29.5166 22.3461 30.4592 20.0704 29.7816 17.9769L28.9668 15.4601C28.87 15.1611 28.87 14.839 28.9668 14.54L29.7816 12.0232C30.4592 9.9297 29.5166 7.65393 27.5571 6.65281L25.2013 5.44925C24.9214 5.30625 24.6937 5.07858 24.5508 4.79869L23.3472 2.44294C22.346 0.48341 20.0703 -0.459251 17.9768 0.218451L15.46 1.03317C15.161 1.12997 14.8391 1.12997 14.54 1.03317L12.0232 0.218451ZM9.31302 3.80205C9.64672 3.14887 10.4053 2.83466 11.1031 3.06055L13.62 3.87528C14.517 4.16569 15.483 4.16569 16.3801 3.87528L18.8969 3.06055C19.5947 2.83466 20.3532 3.14887 20.687 3.80205L21.8904 6.15781C22.3196 6.99751 23.0025 7.68047 23.8422 8.10948L26.198 9.31304C26.8512 9.64675 27.1653 10.4053 26.9394 11.1032L26.1247 13.6201C25.8343 14.5171 25.8343 15.4829 26.1247 16.38L26.9394 18.8968C27.1653 19.5947 26.8512 20.3533 26.198 20.687L23.8422 21.8906C23.0025 22.3196 22.3196 23.0026 21.8904 23.8422L20.687 26.198C20.3532 26.8512 19.5947 27.1654 18.8969 26.9394L16.3801 26.1248C15.483 25.8344 14.517 25.8344 13.62 26.1248L11.1031 26.9394C10.4053 27.1654 9.64672 26.8512 9.31302 26.198L8.10945 23.8422C7.68046 23.0026 6.99749 22.3196 6.15779 21.8906L3.80204 20.687C3.14887 20.3533 2.83465 19.5947 3.06055 18.8968L3.87526 16.38C4.16567 15.4829 4.16567 14.5171 3.87526 13.6201L3.06055 11.1032C2.83465 10.4053 3.14887 9.64675 3.80204 9.31304L6.15779 8.10948C6.99749 7.68047 7.68046 6.99751 8.10945 6.15781L9.31302 3.80205ZM7.17263 14.6377L13.5096 20.9747L24.0713 10.413L21.959 8.30061L13.5096 16.75L9.28498 12.5252L7.17263 14.6377Z" fill="#070707"/>
</svg>
