<svg width="65" height="68" viewBox="0 0 65 68" fill="none" xmlns="http://www.w3.org/2000/svg">
<path d="M32.4014 0.5C49.9975 0.500065 64.3027 15.4755 64.3027 34C64.3027 52.5245 49.9975 67.4999 32.4014 67.5C14.8052 67.5 0.5 52.5245 0.5 34C0.5 15.4755 14.8052 0.5 32.4014 0.5Z" stroke="#333333"/>
<path d="M42.6211 31.6229C42.7734 31.5099 43 31.6156 43 31.7943V39.25C43 40.2161 42.1602 41 41.125 41H24.875C23.8398 41 23 40.2161 23 39.25V31.7979C23 31.6156 23.2227 31.5135 23.3789 31.6266C24.2539 32.2609 25.4141 33.0667 29.3984 35.7682C30.2227 36.3297 31.6133 37.5109 33 37.5036C34.3945 37.5146 35.8125 36.3078 36.6055 35.7682C40.5898 33.0667 41.7461 32.2573 42.6211 31.6229ZM33 36.3333C33.9062 36.3479 35.2109 35.2688 35.8672 34.824C41.0508 31.313 41.4453 31.0068 42.6406 30.1318C42.8672 29.9677 43 29.7125 43 29.4427V28.75C43 27.7839 42.1602 27 41.125 27H24.875C23.8398 27 23 27.7839 23 28.75V29.4427C23 29.7125 23.1328 29.9641 23.3594 30.1318C24.5547 31.0031 24.9492 31.313 30.1328 34.824C30.7891 35.2688 32.0938 36.3479 33 36.3333Z" fill="#8C8C8C"/>
</svg>
