<svg width="65" height="68" viewBox="0 0 65 68" fill="none" xmlns="http://www.w3.org/2000/svg">
<path d="M32.4014 0.5C49.9975 0.500065 64.3027 15.4755 64.3027 34C64.3027 52.5245 49.9975 67.4999 32.4014 67.5C14.8052 67.5 0.5 52.5245 0.5 34C0.5 15.4755 14.8052 0.5 32.4014 0.5Z" stroke="#333333"/>
<path d="M39.364 38.364L33 44.7279L26.636 38.364C23.1213 34.8492 23.1213 29.1508 26.636 25.636C30.1508 22.1213 35.8492 22.1213 39.364 25.636C42.8787 29.1508 42.8787 34.8492 39.364 38.364ZM33 36C35.2091 36 37 34.2091 37 32C37 29.7909 35.2091 28 33 28C30.7909 28 29 29.7909 29 32C29 34.2091 30.7909 36 33 36ZM33 34C31.8954 34 31 33.1046 31 32C31 30.8954 31.8954 30 33 30C34.1046 30 35 30.8954 35 32C35 33.1046 34.1046 34 33 34Z" fill="#8C8C8C"/>
</svg>
