<svg width="65" height="68" viewBox="0 0 65 68" fill="none" xmlns="http://www.w3.org/2000/svg">
<path d="M32.4014 0.5C49.9975 0.500065 64.3027 15.4755 64.3027 34C64.3027 52.5245 49.9975 67.4999 32.4014 67.5C14.8052 67.5 0.5 52.5245 0.5 34C0.5 15.4755 14.8052 0.5 32.4014 0.5Z" stroke="#333333"/>
<path d="M34.9601 38.5153L34.4536 39.0747C34.4536 39.0747 33.25 40.4045 29.9646 36.7749C26.6792 33.1453 27.8829 31.8156 27.8829 31.8156L28.2018 31.4633C28.9873 30.5954 29.0614 29.2021 28.376 28.1849L26.974 26.1042C26.1257 24.8452 24.4866 24.6789 23.5143 25.753L21.7692 27.681C21.2871 28.2136 20.964 28.904 21.0032 29.6699C21.1034 31.6293 21.9014 35.8451 26.3538 40.764C31.0753 45.9802 35.5055 46.1875 37.3172 45.9999C37.8902 45.9405 38.3886 45.6163 38.7901 45.1726L40.3696 43.4278C41.4357 42.25 41.1351 40.2309 39.771 39.407L37.6469 38.124C36.7512 37.583 35.6601 37.7419 34.9601 38.5153Z" fill="#8C8C8C"/>
<path d="M32.4051 23.7348C32.4787 23.2578 32.9084 22.9342 33.363 23.0114C33.3911 23.017 33.4818 23.0348 33.5291 23.0459C33.6241 23.0681 33.7564 23.1022 33.9214 23.1526C34.2513 23.2535 34.7123 23.4196 35.2655 23.6858C36.3732 24.2187 37.8473 25.1508 39.3769 26.7559C40.9065 28.361 41.7948 29.9078 42.3026 31.0701C42.5563 31.6507 42.7146 32.1344 42.8107 32.4806C42.8587 32.6538 42.8913 32.7926 42.9124 32.8922C42.923 32.942 42.9308 32.9819 42.9361 33.0115L42.9426 33.0479C43.0161 33.5249 42.7105 33.9946 42.2559 34.0718C41.8026 34.1488 41.3756 33.8267 41.3002 33.352C41.2979 33.3391 41.2914 33.3049 41.2846 33.2726C41.2709 33.208 41.2472 33.1055 41.2096 32.97C41.1343 32.699 41.0037 32.2961 40.7867 31.7994C40.3533 30.8074 39.5739 29.4375 38.1976 27.9934C36.8214 26.5492 35.5159 25.7314 34.5705 25.2766C34.0972 25.0489 33.7133 24.9118 33.455 24.8328C33.3259 24.7933 33.1636 24.7542 33.102 24.7399C32.6495 24.6607 32.3317 24.2105 32.4051 23.7348Z" fill="#8C8C8C"/>
<path fill-rule="evenodd" clip-rule="evenodd" d="M32.6573 27.7599C32.7838 27.2952 33.2453 27.0261 33.6882 27.1589L33.4591 28.0002C33.6881 27.1589 33.6882 27.1589 33.6882 27.1589L33.6898 27.1594L33.6915 27.1599L33.6952 27.161L33.7038 27.1637L33.7258 27.1709C33.7425 27.1765 33.7635 27.1839 33.7884 27.1932C33.8384 27.2118 33.9044 27.2382 33.9853 27.2746C34.1473 27.3474 34.3686 27.4599 34.6405 27.6288C35.1846 27.9667 35.9276 28.5281 36.8003 29.4439C37.6731 30.3597 38.208 31.1393 38.5301 31.7103C38.691 31.9956 38.7981 32.2278 38.8676 32.3978C38.9023 32.4827 38.9275 32.552 38.9452 32.6044C38.9541 32.6305 38.961 32.6525 38.9665 32.6701L38.9732 32.6932L38.9758 32.7022L38.9769 32.7061L38.9774 32.7079C38.9774 32.7079 38.9779 32.7096 38.1761 32.95L38.9779 32.7096C39.1044 33.1742 38.8479 33.6585 38.4052 33.7913C37.9662 33.9229 37.5087 33.6596 37.3776 33.2022L37.3735 33.1896C37.3676 33.172 37.3553 33.1375 37.3348 33.0871C37.2936 32.9864 37.219 32.8216 37.095 32.6016C36.847 32.1621 36.3993 31.498 35.621 30.6813C34.8429 29.8647 34.2099 29.3949 33.7911 29.1348C33.5814 29.0046 33.4244 28.9263 33.3284 28.8831C33.2803 28.8615 33.2474 28.8486 33.2308 28.8424L33.2187 28.8381C32.7829 28.7006 32.5319 28.2206 32.6573 27.7599Z" fill="#8C8C8C"/>
</svg>
