<svg width="22" height="28" viewBox="0 0 22 28" fill="none" xmlns="http://www.w3.org/2000/svg">
<path d="M8.21298 21.3333H9.625V14.6667H12.375V21.3333H13.787C13.9685 19.7312 14.8116 18.4087 16.1805 16.9635C16.3346 16.8008 17.3233 15.8085 17.4406 15.6668C18.6062 14.2575 19.25 12.5133 19.25 10.6667C19.25 6.24839 15.5563 2.66667 11 2.66667C6.44365 2.66667 2.75 6.24839 2.75 10.6667C2.75 12.5124 3.39314 14.2556 4.5576 15.6645C4.67506 15.8067 5.66611 16.8016 5.81837 16.9624C7.18803 18.4085 8.03142 19.7312 8.21298 21.3333ZM8.25 24V25.3333H13.75V24H8.25ZM2.41168 17.3323C0.902619 15.5063 0 13.1887 0 10.6667C0 4.77563 4.92486 0 11 0C17.0752 0 22 4.77563 22 10.6667C22 13.19 21.0964 15.5087 19.5859 17.3352C18.733 18.3664 16.5 20 16.5 22V25.3333C16.5 26.8061 15.2688 28 13.75 28H8.25C6.73122 28 5.5 26.8061 5.5 25.3333V22C5.5 20 3.26505 18.3648 2.41168 17.3323Z" fill="black"/>
</svg>
