<svg width="35" height="30" viewBox="0 0 35 30" fill="none" xmlns="http://www.w3.org/2000/svg">
<mask id="mask0_2417_53453" style="mask-type:luminance" maskUnits="userSpaceOnUse" x="6" y="8" width="29" height="22">
<path d="M6.41406 8.37305H34.6774V30H6.41406V8.37305Z" fill="white"/>
</mask>
<g mask="url(#mask0_2417_53453)">
<path fill-rule="evenodd" clip-rule="evenodd" d="M32.7388 18.0302L31.5488 15.9945L32.292 15.5899C32.4283 15.5158 32.5147 15.3753 32.5196 15.2199L32.5379 14.6826C32.5463 14.4369 32.3517 14.2328 32.1073 14.2307L30.5098 14.2159L28.0103 9.93981C27.6703 9.35728 27.0486 9 26.3763 9H13.623C12.9514 9 12.3297 9.35728 11.9897 9.93981L9.49022 14.2159L7.89273 14.2307C7.64826 14.2328 7.45366 14.4369 7.46209 14.6826L7.47966 15.2199C7.48457 15.3753 7.57168 15.5158 7.70727 15.5899L8.45051 15.9945L7.26118 18.0302C7.07291 18.3522 6.98299 18.7222 7.00266 19.095L7.39887 26.6692C7.40378 26.7568 7.41994 26.8408 7.44593 26.9206V28.0482C7.44593 28.5735 7.87025 29 8.39361 29H11.7094C12.2328 29 12.6571 28.5742 12.6571 28.0482V27.5716H27.3422V28.0482C27.3422 28.5735 27.7665 29 28.2899 29H31.6057C32.1291 29 32.5534 28.5742 32.5534 28.0482V26.9206C32.5801 26.8408 32.5962 26.7568 32.6004 26.6692L32.9973 19.095C33.017 18.7222 32.9271 18.3522 32.7388 18.0302ZM11.597 14.941L13.3287 11.4593C13.498 11.1197 13.8436 10.905 14.2216 10.905H25.7784C26.1564 10.905 26.502 11.1197 26.6706 11.4593L28.403 14.941C28.5688 15.2743 28.3271 15.6669 27.9562 15.6669H12.0431C11.6722 15.6669 11.4312 15.2743 11.597 14.941ZM13.6645 22.1714L9.75084 21.4561C9.5134 21.4124 9.34129 21.2048 9.34129 20.9626V20.0369C9.34129 19.7375 9.59981 19.5052 9.89556 19.5384L13.3076 19.919C13.4903 19.9395 13.6476 20.0595 13.7158 20.2318L14.2167 21.4914C14.3628 21.8572 14.0502 22.242 13.6645 22.1714ZM30.6587 20.9626C30.6587 21.2048 30.4859 21.4124 30.2492 21.4561L26.3355 22.1714C25.9491 22.242 25.6372 21.8579 25.7826 21.4914L26.2842 20.2318C26.3524 20.0595 26.509 19.9395 26.6924 19.919L30.1044 19.5384C30.4002 19.5052 30.6587 19.7375 30.6587 20.0369V20.9626Z" fill="#070707"/>
</g>
<mask id="mask1_2417_53453" style="mask-type:luminance" maskUnits="userSpaceOnUse" x="0" y="0" width="21" height="21">
<path d="M0 0H20.4565V20.4601H0V0Z" fill="white"/>
</mask>
<g mask="url(#mask1_2417_53453)">
<path d="M6.09331 19.035C6.06406 18.4898 6.19536 17.9532 6.47152 17.483L7.23435 16.1849C6.8433 15.9644 6.59211 15.552 6.57713 15.1024L6.55929 14.5594C6.54716 14.2083 6.67489 13.8751 6.91751 13.6217C7.13016 13.3998 7.40632 13.2642 7.70674 13.2314C7.57259 13.0159 7.45841 12.789 7.36707 12.5528C7.13444 11.9498 7.05238 11.3168 7.12374 10.6696C7.36565 8.46818 9.353 6.87473 11.5537 7.11664C12.3044 7.19942 13.0023 7.48842 13.5803 7.9387C13.6096 7.93727 13.6381 7.93727 13.6674 7.93727H20.059C19.8984 7.48557 19.7036 7.04528 19.4774 6.62355C19.4103 6.49938 19.4218 6.34668 19.5053 6.23535L20.1689 5.34836C20.3873 5.0565 20.3573 4.64262 20.0997 4.38501L17.8376 2.12222C17.58 1.86461 17.1661 1.83536 16.8742 2.05371L15.988 2.71735C15.8759 2.80084 15.7232 2.81155 15.5998 2.74518C15.0439 2.4469 14.4566 2.20357 13.8536 2.0216C13.7209 1.98164 13.6217 1.86675 13.6017 1.72832L13.4447 0.632955C13.3926 0.271878 13.0787 0 12.7147 0H9.51498C9.15105 0 8.83707 0.271878 8.78498 0.632955L8.62799 1.72832C8.60801 1.86675 8.50882 1.98164 8.37609 2.0216C7.77311 2.20357 7.18582 2.4469 6.63065 2.74518C6.50648 2.81155 6.35378 2.80084 6.24246 2.71735L5.35546 2.05371C5.0636 1.83536 4.64972 1.86461 4.39211 2.12222L2.13003 4.38501C1.87243 4.64262 1.84245 5.0565 2.06081 5.34836L2.72445 6.23535C2.80866 6.34668 2.81936 6.49938 2.75228 6.62355C2.454 7.17872 2.21067 7.76601 2.02942 8.36899C1.98945 8.50243 1.87385 8.60091 1.73613 8.62089L0.640054 8.77859C0.279691 8.83068 0.0078125 9.14395 0.0078125 9.5086V12.7083C0.0078125 13.073 0.279691 13.3862 0.640054 13.4383L1.73613 13.596C1.87385 13.616 1.98945 13.7145 2.02942 13.8479C2.21067 14.4509 2.454 15.0382 2.75228 15.5934C2.81936 15.7175 2.80794 15.8703 2.72445 15.9816L2.06081 16.8686C1.84245 17.1604 1.87243 17.5743 2.13003 17.8319L4.39211 20.0947C4.53412 20.2367 4.72393 20.3095 4.91446 20.3095C5.06931 20.3095 5.22487 20.2617 5.35546 20.1632L6.12257 19.5895L6.09331 19.035Z" fill="#070707"/>
</g>
</svg>
