<svg width="61" height="53" viewBox="0 0 61 53" fill="none" xmlns="http://www.w3.org/2000/svg">
<mask id="mask0_2418_53457" style="mask-type:luminance" maskUnits="userSpaceOnUse" x="0" y="0" width="28" height="53">
<path d="M0 0H27.4316V52.4596H0V0Z" fill="white"/>
</mask>
<g mask="url(#mask0_2418_53457)">
<path d="M19.4325 14.9823C23.2477 13.0952 27.3484 13.0205 27.3889 13.0199H27.349V0C26.6662 0 20.5004 0.0856209 14.158 3.06112C5.02763 7.3449 0 14.6377 0 25.1718H0.000687636V52.4589H27.3889V25.1718H13.0687C13.0687 19.7771 15.0918 17.131 19.4325 14.9823Z" fill="#55B809"/>
</g>
<path d="M52.7606 14.9823C56.5745 13.0952 60.6765 13.0205 60.7177 13.0199H60.6765V0C59.9943 0 53.8286 0.0856209 47.4854 3.06112C38.3558 7.3449 33.3281 14.6377 33.3281 25.1718V52.4589H60.7177V25.1718H46.3968C46.3968 19.7771 48.4193 17.131 52.7606 14.9823Z" fill="#55B809"/>
</svg>
