<svg width="28" height="26" viewBox="0 0 28 26" fill="none" xmlns="http://www.w3.org/2000/svg">
<path d="M22.0164 14.4733L16.8 18.7778H9.8V17.3333H15.491C15.6176 17.3333 15.7418 17.2978 15.8505 17.2306C15.9591 17.1635 16.048 17.0672 16.1078 16.952C16.1675 16.8368 16.1959 16.7071 16.1898 16.5766C16.1838 16.4461 16.1435 16.3198 16.0734 16.211L14.8302 14.287C14.5752 13.8909 14.2291 13.5662 13.8229 13.3416C13.4166 13.117 12.9629 12.9997 12.502 13H1.4C1.0287 13 0.672601 13.1522 0.41005 13.4231C0.1475 13.694 0 14.0614 0 14.4444V23.1111C0 23.8773 0.294999 24.6121 0.820101 25.1539C1.3452 25.6956 2.05739 26 2.8 26H16.2946C16.8933 26.0001 17.485 25.8682 18.0302 25.6131C18.5754 25.358 19.0615 24.9856 19.4558 24.5209L28 14.4444L25.9672 13.7453C25.3021 13.5166 24.5921 13.4634 23.902 13.5906C23.2119 13.7177 22.5636 14.0212 22.0164 14.4733ZM24.1612 6.34111C24.7926 5.66944 25.1832 4.74067 25.1832 3.71511C25.1832 2.68956 24.7926 1.76078 24.1612 1.08911C23.8419 0.745302 23.4585 0.471606 23.0342 0.284451C22.6098 0.097297 22.1531 0.000544031 21.6916 9.30408e-08C21.6916 9.30408e-08 19.95 -0.00433356 18.2 1.85756C16.45 -0.00433356 14.7084 9.30408e-08 14.7084 9.30408e-08C14.247 0.00060546 13.7905 0.0972443 13.3662 0.284133C12.9418 0.471022 12.5584 0.744319 12.2388 1.08767C11.6074 1.76078 11.2168 2.68811 11.2168 3.71367C11.2168 4.73922 11.6074 5.66944 12.2388 6.33967L18.2 13L24.1612 6.34111Z" fill="#070707"/>
</svg>
