<svg width="387" height="361" viewBox="0 0 387 361" fill="none" xmlns="http://www.w3.org/2000/svg">
<path d="M382.604 115.777C375.526 96.4153 361.272 81.1301 345.221 71.395C306.145 47.5037 259.591 53.7324 218.12 38.7864C208.351 35.2772 198.879 30.5223 190.308 24.1797C182.133 18.1791 174.159 11.7252 165.485 6.745C158.307 2.66858 150.333 -0.501361 142.258 0.0658635C122.222 1.30887 107.567 22.2555 97.8961 40.1461C92.5148 50.2205 87.9292 60.8647 82.7438 71.0558C78.1583 79.9984 72.9753 88.3765 65.5987 94.4911C58.8195 100.153 51.1442 103.662 43.1678 106.378C35.0934 108.984 27.0191 110.794 19.4442 115.21C13.6614 118.608 8.37808 123.363 4.78894 129.702C1.30017 135.817 -0.0953343 143.177 0.00502786 150.424C0.404086 172.841 13.8597 191.297 18.4477 212.582C19.7429 218.469 20.2399 224.47 19.7429 230.584C19.2434 236.81 17.7476 242.925 16.1537 249.039C13.162 260.359 9.47489 271.682 9.67322 283.684C10.0723 303.724 20.9376 321.161 34.8951 332.37C73.176 363.394 122.222 342.333 163.392 332.031C175.156 329.086 187.118 326.822 199.18 326.369C210.844 326.03 222.307 327.726 233.373 331.577C254.207 338.824 273.247 351.843 294.481 357.957C310.13 362.487 327.677 362.373 342.531 354.787C349.508 351.164 355.788 345.617 360.075 338.371C365.358 329.539 367.351 318.895 367.253 308.367C367.052 284.929 358.28 262.286 360.474 238.623C362.467 216.656 372.735 197.069 379.813 176.918C383.301 167.066 386.092 156.878 386.79 146.233C387.588 135.703 386.092 125.401 382.604 115.777ZM384.298 146.119C382.804 167.519 372.935 186.881 365.858 206.354C362.366 216.092 359.377 226.169 358.18 236.585C356.885 247.794 358.082 258.889 359.876 269.872C363.164 291.158 369.645 315.614 358.78 335.426C350.105 351.164 333.259 357.393 317.708 357.957C298.269 358.636 280.524 350.147 262.979 341.54C253.309 336.786 243.641 332.031 233.473 328.519C222.806 324.898 211.84 323.199 200.674 323.425C177.347 323.878 154.72 331.463 132.189 337.578C109.66 343.693 85.8359 348.787 62.8077 343.125C45.4618 338.938 28.914 327.162 19.4442 309.952C14.8586 301.685 12.1655 292.062 12.1655 282.213C12.1655 270.211 16.1537 258.775 19.1455 247.454C22.0345 236.132 23.43 224.809 21.2387 213.147C18.9447 201.485 14.0605 190.843 9.77358 179.974C3.79249 165.028 -1.5912 146.347 6.98257 131.176C10.5717 124.834 16.0534 120.193 21.9365 117.023C29.5114 112.832 37.8845 111.247 45.8608 108.417C53.3378 105.814 60.614 102.191 66.9942 96.8686C73.673 91.2072 78.9564 83.8495 83.2433 75.6967C93.7096 55.6566 101.686 33.4643 116.939 17.1613C123.916 9.68968 132.49 3.46107 142.258 2.89384C150.531 2.32933 158.507 5.72454 165.686 10.0289C173.858 14.8978 181.435 20.8985 189.111 26.6711C225.298 53.6184 270.755 49.7699 311.328 60.5255C330.867 65.7336 349.807 74.6762 364.362 90.8679C377.421 105.361 385.794 124.948 384.298 146.119ZM329.472 82.7151C298.168 63.4674 261.383 65.9589 227.392 57.0163C223.205 55.8818 219.117 54.6361 215.03 53.1651C211.542 51.9194 208.053 50.4484 204.662 48.7495C199.579 46.258 194.693 43.3161 190.009 39.8041C182.633 34.3707 175.354 28.5954 167.478 24.4077C161 20.8985 153.922 18.407 146.643 19.0855C136.476 19.992 127.804 26.5571 120.726 35.0492C115.443 41.3891 110.957 48.7495 107.268 55.5426C106.272 57.3555 105.373 59.1658 104.477 60.9787C100.787 68.3364 97.3991 75.922 93.5112 83.2823C93.2125 83.8495 92.9138 84.414 92.6128 84.9813C88.627 92.2276 84.0414 98.9068 77.8596 103.89C71.7781 108.759 64.9009 111.929 57.823 114.306C50.7451 116.683 43.5669 118.382 36.9884 122.345C31.9034 125.401 27.3178 129.702 24.1277 135.25C21.1384 140.686 19.8432 147.14 19.9412 153.48C20.2399 173.634 32.2045 190.051 36.391 209.07C37.5858 214.393 37.9848 219.715 37.5858 225.148C37.0887 230.81 35.7912 236.246 34.3957 241.679C31.705 251.756 28.4146 262.058 28.6153 272.703C28.914 290.591 38.6826 306.329 51.1442 316.406C85.4369 344.257 129.3 325.463 166.183 316.292C176.649 313.687 187.316 311.537 198.084 311.198C208.449 310.859 218.717 312.33 228.586 315.725C230.981 316.517 233.272 317.424 235.664 318.444C251.615 325.01 266.669 334.522 283.116 339.277C287.702 340.634 292.586 341.54 297.372 341.88C307.141 342.672 317.01 341.201 325.882 336.786C332.162 333.616 337.744 328.861 341.732 322.518C346.617 314.707 348.71 305.309 348.71 295.799C348.81 290.137 348.213 284.476 347.515 278.929C345.42 263.643 341.532 248.586 342.829 232.962C343.028 230.245 343.427 227.526 343.926 224.923C347.016 208.278 354.591 192.882 360.175 177.257C363.265 168.426 365.757 159.255 366.455 149.743C367.153 140.458 365.858 131.176 362.667 122.57C356.686 105.247 343.926 91.5464 329.472 82.7151ZM364.261 149.743C362.866 168.879 354.094 186.2 347.814 203.637C344.624 212.354 342.031 221.3 340.934 230.696C339.837 240.661 340.834 250.624 342.43 260.473C345.42 279.496 351.202 301.346 341.532 319.123C333.758 333.276 318.704 338.824 304.749 339.277C287.403 339.841 271.453 332.142 255.801 324.556C247.129 320.255 238.455 316.067 229.384 312.894C219.814 309.613 210.046 308.139 200.076 308.253C179.141 308.593 159.005 315.386 138.77 320.933C118.532 326.483 97.2987 331.01 76.6648 325.916C61.2114 322.179 46.4582 311.651 37.8845 296.252C33.7983 288.78 31.306 280.288 31.4063 271.457C31.4063 260.701 34.9955 250.51 37.5858 240.319C40.0781 230.47 41.3756 220.621 39.5811 210.43C39.5811 210.205 39.4807 209.863 39.4807 209.638C37.4878 199.221 33.1006 189.712 29.2127 179.974C23.9294 166.501 19.1455 149.743 26.7204 136.156C29.9105 130.495 34.8951 126.419 40.1785 123.477C46.9577 119.739 54.4346 118.382 61.6105 115.777C68.2893 113.399 74.8702 110.23 80.4522 105.475C86.4333 100.378 91.1193 93.8126 95.0071 86.5662C104.477 68.6756 111.555 48.7495 125.111 34.1455C131.293 27.4636 138.968 21.9162 147.74 21.349C155.117 20.8985 162.295 23.8404 168.775 27.6916C176.052 31.9933 182.831 37.4267 189.708 42.5236C222.108 66.6401 262.681 63.2422 299.067 72.866C316.611 77.5069 333.558 85.4345 346.617 99.9272C358.082 113.286 365.657 130.723 364.261 149.743ZM313.82 94.0379C285.907 76.8284 253.11 79.2059 222.904 71.0558C219.217 70.0353 215.527 68.9036 211.938 67.5439C208.849 66.4121 205.759 65.0524 202.767 63.4675C198.282 61.204 193.897 58.4873 189.708 55.4286C183.13 50.5624 176.649 45.5795 169.473 42.0703C163.69 39.2396 157.411 37.2014 151.131 37.9939C142.258 39.1257 134.681 45.0123 128.502 52.6006C123.916 58.2593 119.928 64.7132 116.738 70.8278C115.94 72.4128 115.044 73.9977 114.246 75.5827C110.955 82.1506 107.966 88.8297 104.477 95.1696C104.178 95.6228 103.88 96.1901 103.679 96.6433C100.09 102.983 95.9032 108.645 90.4215 112.946C85.0378 117.137 78.856 119.853 72.6766 122.003C66.5951 124.155 60.4157 125.74 54.7333 129.138C50.3461 131.855 46.4582 135.592 43.7676 140.458C41.1749 145.216 40.0781 150.763 40.1785 156.31C40.3768 174.087 50.9435 188.691 54.7333 205.447C55.7298 210.091 56.1288 214.846 55.8301 219.715C55.4311 224.695 54.3343 229.453 53.0391 234.319C50.6448 243.264 47.7534 252.323 47.8537 261.833C48.1524 277.683 56.7262 291.497 67.7923 300.554C98.0968 325.237 136.875 308.821 169.473 300.554C178.745 298.29 188.114 296.366 197.484 296.027C206.557 295.685 215.527 296.931 224.299 299.875C226.395 300.554 228.488 301.346 230.481 302.139C244.537 307.914 257.796 316.178 272.251 320.483C276.337 321.726 280.524 322.518 284.811 322.971C293.384 323.764 302.056 322.632 309.932 318.898C315.514 316.292 320.398 312.102 323.987 306.782C328.573 299.989 330.568 291.836 330.867 283.458C331.065 278.475 330.666 273.495 330.069 268.398C328.375 254.701 324.786 241.34 325.882 227.414C326.081 225.037 326.379 222.657 326.779 220.279C329.371 205.447 336.248 191.75 341.135 177.71C343.826 169.897 346.117 161.744 346.717 153.366C347.314 145.216 346.218 136.949 343.427 129.363C337.845 114.078 326.58 101.851 313.82 94.0379ZM344.225 153.254C343.028 170.236 335.252 185.407 329.67 200.92C326.879 208.617 324.487 216.545 323.588 224.809C322.592 233.64 323.49 242.472 324.886 251.078C327.476 267.834 332.662 287.195 324.088 302.82C317.309 315.274 303.951 320.141 291.59 320.594C276.237 321.047 262.181 314.254 248.324 307.461C240.649 303.724 232.974 299.989 225 297.27C216.624 294.439 207.952 293.082 199.08 293.196C180.637 293.535 162.794 299.536 144.949 304.405C127.106 309.271 108.365 313.236 90.1228 308.821C76.4641 305.537 63.4051 296.252 55.9281 282.666C52.3414 276.098 50.1477 268.626 50.2457 260.813C50.2457 251.303 53.4358 242.246 55.7298 233.301C57.9234 224.584 59.0202 215.864 57.424 206.921C57.424 206.693 57.3236 206.468 57.3236 206.24C55.529 197.069 51.6412 188.577 48.2528 180.088C43.5669 168.198 39.28 153.48 46.0592 141.478C48.9506 136.384 53.2374 132.872 57.9234 130.27C63.9045 126.986 70.483 125.74 76.8631 123.477C82.7438 121.324 88.5266 118.494 93.5112 114.306C98.7946 109.776 102.981 104.001 106.369 97.6611C114.745 81.8113 120.924 64.3739 132.887 51.4662C138.371 45.5795 145.049 40.5966 152.825 40.1461C159.404 39.6929 165.683 42.4096 171.366 45.8048C177.846 49.6559 183.727 54.4109 189.808 58.9405C218.419 80.2264 254.207 77.2817 286.306 85.7738C301.757 89.8502 316.809 96.8686 328.274 109.662C338.741 121.099 345.42 136.496 344.225 153.254ZM298.168 105.361C273.744 90.1894 244.936 92.4529 218.419 85.0953C215.128 84.1888 211.941 83.1683 208.849 81.9226C206.158 80.9049 203.467 79.6591 200.875 78.2994C196.987 76.2639 193.199 73.8838 189.51 71.1671C183.727 66.9794 177.947 62.675 171.667 59.8443C166.582 57.5808 161.198 56.2238 155.716 57.1276C148.039 58.3733 141.661 63.8094 136.378 70.3746C132.39 75.3575 129.099 81.0188 126.308 86.3383C125.61 87.698 124.913 89.0577 124.215 90.5287C121.323 96.1901 118.731 101.963 115.543 107.399C115.242 107.852 115.044 108.305 114.745 108.645C111.454 114.078 107.767 118.722 102.881 122.345C98.0968 125.854 92.8135 128.117 87.3294 130.156C82.1464 132.08 77.0638 133.44 72.3779 136.496C68.7887 138.873 65.4983 142.043 63.3047 146.233C61.2114 150.196 60.215 154.951 60.3153 159.594C60.5137 174.991 69.5869 187.673 72.8749 202.277C73.7734 206.354 74.1724 210.544 73.7734 214.621C73.4747 218.922 72.4759 223.11 71.3814 227.3C69.2882 235.111 66.7959 242.925 66.8938 251.189C67.0946 265.003 74.5715 277.004 84.1393 284.929C110.458 306.554 144.053 292.29 172.463 285.157C180.439 283.119 188.513 281.534 196.688 281.195C204.562 280.853 212.239 281.873 219.814 284.365C221.609 284.929 223.403 285.61 225.198 286.289C237.361 291.158 248.723 298.29 261.185 302.139C264.674 303.27 268.363 303.952 271.952 304.405C279.329 305.197 286.803 304.291 293.683 301.346C298.467 299.197 302.754 295.799 306.044 291.269C310.231 285.61 312.324 278.589 312.823 271.229C313.122 266.927 312.921 262.512 312.424 258.096C311.129 246.095 307.939 234.319 308.735 222.092C308.835 219.94 309.134 217.902 309.433 215.752C311.526 202.617 317.607 190.615 321.894 178.389C324.286 171.596 326.181 164.463 326.779 157.217C327.278 150.082 326.379 142.949 323.987 136.27C319.003 122.795 309.234 112.268 298.168 105.361ZM324.188 156.878C323.091 171.596 316.312 184.843 311.526 198.201C309.134 204.883 307.041 211.79 306.243 218.922C305.346 226.508 306.145 234.207 307.339 241.679C309.633 256.172 314.119 272.928 306.742 286.514C300.861 297.384 289.296 301.574 278.631 301.799C265.271 302.139 253.11 296.252 241.148 290.365C234.469 287.081 227.889 283.912 220.911 281.534C213.635 279.043 206.158 277.911 198.483 278.022C182.532 278.25 166.981 283.572 151.53 287.76C135.979 292.062 119.828 295.46 103.978 291.611C92.1157 288.78 80.8513 280.742 74.3708 268.966C71.2811 263.304 69.3861 256.739 69.3861 250.057C69.4865 241.793 72.1772 233.979 74.1724 226.169C76.065 218.583 77.0638 211.109 75.6659 203.298C75.6659 203.07 75.568 202.959 75.568 202.731C73.9717 194.806 70.6837 187.445 67.7923 180.088C63.7038 169.783 60.0166 156.989 65.8974 146.687C68.3897 142.271 72.1772 139.215 76.1654 137.063C81.3483 134.232 87.1311 133.1 92.5148 131.176C97.6978 129.363 102.582 126.872 106.969 123.249C111.555 119.4 115.144 114.417 118.133 108.759C125.312 95.0583 130.793 79.8871 141.162 68.6756C145.848 63.5814 151.728 59.2798 158.407 58.8265C164.09 58.3733 169.571 60.7507 174.458 63.6954C180.04 66.9794 185.223 71.1671 190.506 75.0182C215.329 93.4734 246.331 90.9819 274.143 98.2283C287.602 101.737 300.661 107.852 310.63 118.833C319.402 129.024 325.185 142.385 324.188 156.878ZM282.519 116.683C261.584 103.548 236.661 105.7 213.934 99.246C211.143 98.4535 208.351 97.5471 205.658 96.4153C203.367 95.5116 201.073 94.3771 198.781 93.1314C195.491 91.3212 192.2 89.169 189.111 86.9055C184.126 83.2823 179.043 79.7731 173.559 77.6209C169.175 75.922 164.589 75.1295 160.101 76.2639C153.721 77.7349 148.438 82.4898 144.053 88.1512C140.763 92.4529 137.972 97.2078 135.58 101.851C134.98 102.983 134.382 104.229 133.785 105.361C131.393 110.23 129.099 115.098 126.308 119.625C126.11 119.967 125.909 120.307 125.61 120.646C122.719 125.062 119.331 128.799 115.144 131.741C111.055 134.571 106.47 136.496 101.884 138.195C97.6978 139.78 93.5112 141.139 89.8217 143.742C86.9327 145.78 84.3401 148.386 82.5455 151.781C80.8513 155.065 80.0532 158.913 80.1535 162.65C80.2515 175.783 87.9292 186.542 90.7202 198.768C91.5183 202.277 91.817 205.789 91.5183 209.298C91.2172 212.922 90.4215 216.431 89.523 220.054C87.7285 226.733 85.6352 233.415 85.7356 240.433C85.9339 252.095 92.1157 262.398 100.29 269.08C122.521 287.535 151.131 275.645 175.156 269.533C181.834 267.834 188.614 266.474 195.491 266.135C202.069 265.796 208.55 266.588 214.93 268.626C216.426 269.08 217.922 269.644 219.415 270.211C229.683 274.174 239.253 280.174 249.622 283.572C252.513 284.476 255.603 285.157 258.693 285.61C264.874 286.403 271.154 285.836 276.934 283.458C281.023 281.759 284.71 279.043 287.602 275.533C291.389 270.89 293.583 265.003 294.28 258.889C294.679 255.151 294.679 251.417 294.28 247.566C293.384 237.149 290.493 227.072 290.992 216.545C291.09 214.732 291.291 212.922 291.489 211.109C293.184 199.789 298.369 189.37 302.156 178.842C304.149 173.067 305.846 167.066 306.343 160.84C306.842 154.839 306.044 148.725 304.051 143.063C300.163 131.627 291.888 122.57 282.519 116.683ZM304.149 160.498C303.253 172.953 297.47 184.161 293.384 195.484C291.389 201.146 289.597 206.921 288.899 213.033C288.201 219.487 288.799 225.941 289.795 232.281C291.69 244.51 295.578 258.775 289.296 270.211C284.313 279.382 274.442 282.891 265.472 283.119C254.207 283.458 243.839 278.364 233.671 273.381C228.089 270.665 222.407 267.948 216.624 265.91C210.445 263.871 204.165 262.851 197.684 262.965C184.226 263.19 171.067 267.606 157.91 271.229C144.751 274.852 131.092 277.797 117.636 274.513C107.667 272.135 97.9965 265.342 92.5148 255.379C89.8217 250.624 88.3283 245.077 88.3283 239.416C88.4262 232.395 90.7202 225.715 92.4144 219.148C94.0107 212.694 94.8064 206.354 93.6116 199.789C93.6116 199.675 93.5112 199.447 93.5112 199.335C92.2161 192.654 89.4227 186.428 86.9327 180.199C83.542 171.596 80.2515 160.726 85.2362 151.895C87.3294 148.158 90.5195 145.666 94.0107 143.742C98.3955 141.364 103.28 140.458 107.865 138.762C112.253 137.177 116.439 135.025 120.028 131.969C123.916 128.685 126.905 124.494 129.498 119.739C135.58 108.191 140.165 95.2836 148.937 85.8877C152.925 81.5834 157.81 77.8489 163.392 77.5069C168.176 77.1677 172.862 79.0919 177.048 81.5834C181.734 84.414 186.121 87.9232 190.607 91.2072C211.542 106.832 237.858 104.793 261.383 110.908C272.748 113.853 283.814 118.947 292.388 128.345C300.063 136.835 304.947 148.158 304.149 160.498ZM266.867 128.006C249.323 116.909 228.488 118.947 209.546 113.286C207.255 112.607 204.961 111.815 202.669 110.794C200.774 110.002 198.879 108.984 196.987 107.963C194.294 106.378 191.603 104.568 188.912 102.644C184.726 99.5853 180.339 96.7546 175.753 95.3976C172.064 94.3771 168.376 94.1519 164.687 95.2836C159.604 96.9826 155.418 101.059 151.927 105.814C149.336 109.323 147.143 113.399 145.15 117.248C144.65 118.268 144.151 119.175 143.654 120.193C141.661 124.155 139.766 128.231 137.274 131.741C137.075 132.08 136.875 132.308 136.676 132.533C134.084 136.042 131.192 138.873 127.603 141.025C124.114 143.177 120.327 144.648 116.637 146.119C113.447 147.479 110.257 148.611 107.466 150.763C105.275 152.462 103.38 154.611 102.085 157.217C100.787 159.82 100.29 162.764 100.29 165.706C100.29 176.465 106.57 185.296 108.962 195.373C109.66 198.201 109.861 201.146 109.66 203.976C109.462 206.921 108.862 209.863 108.066 212.694C106.671 218.13 104.876 223.677 104.876 229.453C104.974 239.076 110.059 247.566 116.738 253.116C134.98 268.398 158.407 258.775 178.245 253.68C183.629 252.323 189.211 251.189 194.693 250.85C199.976 250.624 205.259 251.078 210.445 252.663C211.64 253.002 212.937 253.455 214.132 253.908C222.407 257.078 230.183 261.947 238.656 264.775C241.048 265.568 243.44 266.249 245.932 266.588C250.917 267.381 256.002 267.041 260.786 265.456C264.177 264.325 267.166 262.286 269.658 259.681C273.147 256.058 275.341 251.417 276.139 246.32C276.636 243.264 276.736 240.094 276.538 236.81C276.038 228.093 273.546 219.601 273.744 210.769C273.744 209.184 273.845 207.713 274.046 206.24C275.24 196.73 279.728 188.013 282.818 179.067C284.512 174.312 285.807 169.329 286.206 164.235C286.605 159.255 286.008 154.272 284.313 149.517C281.322 140.347 274.543 132.872 266.867 128.006ZM284.012 164.121C283.315 174.312 278.531 183.597 275.142 192.881C273.446 197.522 272.05 202.277 271.553 207.26C270.953 212.582 271.453 217.791 272.251 222.999C273.744 233.076 277.035 244.624 271.952 254.02C267.864 261.605 259.789 264.436 252.413 264.55C243.141 264.775 234.668 260.587 226.395 256.511C221.81 254.248 217.224 252.095 212.438 250.51C207.453 248.811 202.27 248.019 196.886 248.019C185.82 248.247 175.055 251.87 164.388 254.812C153.623 257.757 142.457 260.134 131.393 257.532C123.218 255.605 115.342 250.057 110.857 241.904C108.663 237.942 107.466 233.526 107.466 228.885C107.567 223.11 109.462 217.677 110.857 212.24C112.152 207.032 112.75 201.824 111.753 196.391C111.753 196.277 111.655 196.165 111.655 195.937C110.558 190.39 108.264 185.407 106.272 180.313C103.481 173.295 100.787 164.349 104.876 157.217C106.671 154.158 109.261 152.12 112.052 150.649C115.641 148.725 119.629 147.932 123.417 146.687C127.006 145.441 130.394 143.631 133.386 141.139C136.576 138.423 139.068 135.025 141.162 131.176C146.146 121.778 149.833 111.247 157.012 103.436C160.202 99.9272 164.19 96.8686 168.775 96.5293C172.761 96.1901 176.451 97.889 179.94 99.9272C183.827 102.191 187.416 105.135 191.006 107.852C208.151 120.646 229.683 118.947 248.924 123.93C258.293 126.307 267.367 130.495 274.344 138.081C280.724 144.762 284.811 154.047 284.012 164.121ZM251.216 139.326C237.16 130.27 220.213 132.194 205.061 127.325C203.166 126.76 201.372 125.968 199.579 125.176C198.084 124.494 196.487 123.591 195.092 122.684C192.999 121.324 190.805 119.739 188.712 118.268C185.323 115.891 181.734 113.739 177.846 113.172C174.857 112.721 171.966 113.06 169.272 114.417C165.485 116.23 162.295 119.739 159.803 123.591C157.91 126.419 156.214 129.591 154.72 132.647C154.321 133.44 153.922 134.232 153.623 134.911C152.027 138.081 150.531 141.139 148.438 143.856C148.24 144.081 148.139 144.309 147.941 144.423C145.747 147.026 143.155 148.839 140.363 150.31C137.572 151.67 134.583 152.801 131.692 154.158C129.398 155.179 127.305 156.31 125.412 158.009C123.916 159.366 122.719 160.951 121.823 162.878C121.025 164.689 120.626 166.727 120.626 168.879C120.525 177.257 125.412 184.161 127.305 191.975C127.904 194.238 128.002 196.505 127.904 198.768C127.804 201.032 127.305 203.298 126.707 205.561C125.61 209.863 124.114 214.167 124.215 218.808C124.315 226.394 128.203 233.076 133.386 237.489C147.642 249.604 165.984 242.358 181.435 238.284C185.622 237.263 189.808 236.357 193.995 236.018C198.084 235.792 202.069 236.018 206.057 237.149C206.956 237.377 207.952 237.717 208.849 238.056C215.229 240.319 221.21 244.057 227.59 246.434C229.384 247.112 231.279 247.68 233.172 248.019C236.962 248.811 240.85 248.811 244.537 247.908C247.129 247.226 249.622 245.981 251.715 244.285C254.905 241.793 256.998 238.284 258.095 234.319C258.693 231.941 258.991 229.339 258.991 226.733C258.893 219.601 256.7 212.808 256.7 205.675C256.7 204.43 256.7 203.184 256.898 201.938C257.596 194.127 261.285 187.106 263.778 179.974C265.073 176.237 266.169 172.274 266.468 168.312C266.767 164.463 266.368 160.498 265.073 156.764C262.48 149.178 257.197 143.177 251.216 139.326ZM263.976 167.633C263.378 175.558 259.689 182.804 257.099 190.051C255.801 193.674 254.704 197.408 254.308 201.26C253.808 205.336 254.207 209.412 254.905 213.486C256.1 221.3 258.693 230.356 254.704 237.717C251.514 243.603 245.234 245.755 239.454 245.869C232.276 245.981 225.697 242.7 219.117 239.527C215.527 237.717 211.941 236.132 208.251 234.886C204.363 233.64 200.375 232.962 196.189 232.962C187.615 233.076 179.242 235.904 170.869 238.284C162.395 240.661 153.822 242.472 145.15 240.433C138.77 238.962 132.688 234.661 129.199 228.318C127.505 225.262 126.506 221.753 126.607 218.13C126.707 213.6 128.203 209.298 129.3 205.108C130.296 201.032 130.695 196.958 129.998 192.768C129.998 192.654 129.998 192.542 129.897 192.428C129.099 188.127 127.305 184.161 125.711 180.199C123.517 174.766 121.323 167.744 124.513 162.311C125.909 159.934 127.904 158.349 130.096 157.217C132.887 155.743 136.077 155.179 138.968 154.158C141.759 153.141 144.452 151.667 146.744 149.743C149.136 147.704 151.131 145.102 152.825 142.043C156.713 134.685 159.604 126.533 165.086 120.532C167.578 117.815 170.668 115.324 174.159 114.984C177.249 114.759 180.14 116.002 182.831 117.587C185.82 119.4 188.614 121.552 191.405 123.702C204.762 133.665 221.508 132.419 236.563 136.27C243.839 138.081 251.017 141.25 256.499 147.254C261.383 152.687 264.573 159.82 263.976 167.633ZM235.566 150.649C224.899 143.631 212.039 145.441 200.576 141.364C197.983 140.458 195.39 139.215 193.099 137.516C189.211 134.571 184.726 130.609 179.839 130.834C174.458 131.062 170.271 136.27 167.578 141.139C165.984 143.856 164.787 146.801 163.392 149.631C162.195 152.12 160.899 154.497 158.907 156.196C155.217 159.48 150.333 159.48 146.345 161.972C142.956 163.896 140.763 167.405 140.662 171.71C140.464 177.71 143.953 182.804 145.449 188.352C146.345 191.75 146.046 194.806 145.15 198.201C144.352 201.374 143.255 204.544 143.255 207.825C143.255 213.261 146.046 218.13 149.735 221.414C159.903 230.356 173.16 225.376 184.425 222.431C190.707 220.732 197.185 219.715 203.565 221.753C209.348 223.677 214.531 227.3 220.314 228.999C224.699 230.245 229.485 230.356 233.671 228.318C238.257 226.169 240.948 221.525 241.148 215.864C241.447 209.524 238.955 203.409 239.253 196.958C239.552 190.957 242.343 185.521 244.338 180.088C246.331 174.652 247.328 168.765 245.435 163.104C243.641 157.895 239.851 153.594 235.566 150.649ZM243.939 171.256C243.54 176.918 240.749 182.126 238.955 187.334C238.059 189.937 237.26 192.542 236.962 195.373C236.661 198.315 236.861 201.26 237.361 204.09C238.157 209.638 240.051 216.092 237.361 221.414C235.167 225.601 230.582 227.072 226.493 227.186C221.31 227.186 216.624 224.809 211.938 222.545C206.655 219.94 201.372 217.791 195.591 217.902C183.33 218.13 171.366 226.169 159.005 223.338C154.419 222.317 150.034 219.262 147.542 214.732C146.345 212.582 145.647 210.091 145.747 207.485C145.848 204.204 147.042 201.146 147.74 198.09C148.438 195.145 148.737 192.314 148.139 189.258C147.542 186.088 146.247 183.258 145.15 180.313C143.654 176.465 141.96 171.482 144.251 167.519C146.545 163.557 151.031 163.104 154.62 161.744C158.806 160.159 162.195 157.328 164.489 153.027C167.28 147.818 169.272 142.046 173.16 137.63C174.857 135.703 177.048 133.893 179.54 133.554C181.734 133.326 183.827 134.232 185.722 135.364C187.816 136.61 189.808 138.195 191.804 139.78C201.372 146.912 213.336 146.119 224.101 148.839C229.384 150.196 234.469 152.348 238.455 156.65C242.044 160.498 244.338 165.595 243.939 171.256Z" fill="#939393" fill-opacity="0.1"/>
</svg>
